<?xml version="1.0" standalone="no"?>
<!DOCTYPE svg PUBLIC "-//W3C//DTD SVG 1.1//EN" "http://www.w3.org/Graphics/SVG/1.1/DTD/svg11.dtd" >
<svg xmlns="http://www.w3.org/2000/svg">
<metadata></metadata>
<defs>
<font id="tecna_extralightregular" horiz-adv-x="1339" >
<font-face units-per-em="2048" ascent="1638" descent="-410" />
<missing-glyph horiz-adv-x="667" />
<glyph horiz-adv-x="2048" />
<glyph horiz-adv-x="2048" />
<glyph unicode="&#xd;" horiz-adv-x="2048" />
<glyph unicode=" "  horiz-adv-x="667" />
<glyph unicode="&#x09;" horiz-adv-x="667" />
<glyph unicode="&#xa0;" horiz-adv-x="667" />
<glyph unicode="!" horiz-adv-x="589" d="M221 0v186h148v-186h-148zM254 319v1065h115v-317q0 -543 -35 -748h-80z" />
<glyph unicode="&#x22;" horiz-adv-x="784" d="M182 1348v188h113v-188q0 -116 -23 -357h-67q-23 242 -23 357zM489 1348v188h113v-188q0 -126 -22 -357h-68q-23 242 -23 357z" />
<glyph unicode="#" d="M123 401v76h242l71 430h-225v76h240l67 401h111l-68 -401h348l68 401h110l-69 -401h260v-59q-113 -17 -272 -17l-74 -430h258v-59q-113 -17 -270 -17l-68 -401h-111l68 401h-348l-68 -401h-110l67 401h-227zM475 477h348l72 430h-348z" />
<glyph unicode="$" d="M231 985q0 70 26.5 119.5t82.5 105.5q104 101 309 111v166h88v-166q228 -4 359 -49l-17 -68q-69 10 -185 18.5t-189 8.5q-52 0 -82.5 -0.5t-75 -4.5t-71 -12t-57.5 -22.5t-47.5 -35.5t-28 -53t-11.5 -73q0 -31 0.5 -45.5t3.5 -38.5t9.5 -36t18.5 -29.5t30.5 -28.5t46 -23 t63.5 -22l411 -113q48 -13 85 -33.5t55.5 -37.5t40.5 -43q71 -83 71 -185q0 -77 -28.5 -126t-81.5 -95q-98 -83 -320 -106v-170h-88v163h-20q-232 0 -387 50l18 75q186 -26 352 -26q60 0 97.5 1t91 5t87 11.5t71 22t59 34.5t35.5 51t14 71q0 32 -0.5 46.5t-3.5 38.5t-9 36 t-17.5 28.5t-29 27t-43.5 21.5t-61 21l-403 115q-38 11 -72.5 28.5t-53 32t-50.5 40.5q-93 76 -93 194z" />
<glyph unicode="%" horiz-adv-x="1703" d="M145 1026q0 123 12 180t56 111q49 57 96.5 72.5t132.5 15.5q84 0 132 -15.5t96 -72.5q43 -54 55 -110t12 -177q0 -124 -11.5 -180.5t-55.5 -110.5q-48 -57 -96 -72.5t-132 -15.5q-85 0 -132.5 15.5t-96.5 72.5q-44 54 -56 110.5t-12 176.5zM264 1028q0 -73 1.5 -106 t10 -76.5t27 -61t52.5 -30.5t87 -13q52 0 86 13t52 30.5t26.5 61t10 76.5t1.5 106q0 40 -0.5 61t-2 52.5t-4.5 47.5t-9 38t-15 32.5t-22 23.5t-30.5 18.5t-40.5 9.5t-52 4t-52.5 -4t-41 -9.5t-31 -18.5t-22.5 -23.5t-15 -32.5t-9 -38t-4.5 -47.5t-2 -52.5t-0.5 -61zM422 0 l735 1384h123l-735 -1384h-123zM967 360q0 124 11.5 180.5t55.5 110.5q48 57 96 72.5t132 15.5q85 0 132.5 -15.5t96.5 -72.5q44 -54 56 -110.5t12 -175.5q0 -123 -12 -180t-56 -111q-49 -57 -96.5 -72.5t-132.5 -15.5q-84 0 -132 15.5t-96 72.5q-43 54 -55 110t-12 176z M1085 362q0 -72 1.5 -105.5t10 -77t27 -60.5t52.5 -30t86 -13q27 0 48.5 2.5t38.5 9.5t30 13t22.5 20.5t16 24.5t11 32.5t7 36t3.5 44t1 48v55.5q0 40 -0.5 61t-2 52.5t-4.5 47.5t-9 38t-15 32.5t-22.5 23.5t-31 18.5t-41 9.5t-52.5 4q-37 0 -64.5 -6.5t-46.5 -16 t-31.5 -30.5t-19.5 -39t-10.5 -54.5t-4 -63t-0.5 -77.5z" />
<glyph unicode="&#x26;" horiz-adv-x="1466" d="M106 348q0 112 33.5 181t100.5 126q61 51 102 69t96 21q-74 85 -108.5 149t-34.5 144q0 93 19.5 147.5t88.5 123.5q66 68 105.5 82t165.5 14q132 0 187.5 -16t115.5 -76t75 -114.5t15 -154.5h-109q0 72 -12.5 121.5t-33 79t-59 45.5t-78 20.5t-101.5 4.5 q-148 0 -206 -53.5t-58 -174.5q0 -91 29 -155t102 -148l430 -487q43 100 43 244v65q0 66 7 88t30 45q24 24 41 29.5t71 5.5h209v-84h-248v-65q0 -239 -88 -400q72 -77 149.5 -108t186.5 -31v-86q-71 0 -111.5 3t-92.5 16t-97 42.5t-94 77.5q-136 -159 -391 -159 q-155 0 -236.5 18.5t-136.5 73.5q-65 65 -86 119.5t-21 156.5zM225 389q0 -73 5.5 -121.5t22 -85.5t39.5 -57t66.5 -33t94.5 -16.5t131 -3.5q224 0 334 133l-424 481q-78 -8 -132 -33.5t-83.5 -66.5t-41.5 -88t-12 -109z" />
<glyph unicode="'" horiz-adv-x="428" d="M158 1348v188h112v-188q0 -126 -22 -357h-68q-22 231 -22 357z" />
<glyph unicode="(" horiz-adv-x="555" d="M180 672q0 220 12 357.5t29 203t51 141.5q36 82 101 164l49 -14q-68 -169 -91.5 -335.5t-23.5 -516.5t23.5 -516.5t91.5 -335.5l-49 -15q-65 82 -101 164q-34 76 -51 141.5t-29 203.5t-12 358z" />
<glyph unicode=")" horiz-adv-x="552" d="M131 -180q67 170 90 336.5t23 515.5t-23 515.5t-90 336.5l49 14q70 -94 101 -164q34 -76 51 -141.5t29 -203t12 -357.5t-12 -358t-29 -203.5t-51 -141.5q-36 -82 -101 -164z" />
<glyph unicode="*" horiz-adv-x="987" d="M131 1090l31 88l174 -58q26 -9 69.5 -26t49.5 -19q0 5 -2.5 28t-4.5 60.5t-2 77.5v143h95v-143q0 -40 -2.5 -77.5t-4.5 -60.5t-2 -28q6 2 49.5 19t69.5 26l174 58l31 -88l-168 -56q-42 -13 -131 -33q3 -4 18 -23t37 -47.5t45 -60.5l86 -114l-75 -56l-84 115 q-25 34 -90 139q-59 -94 -91 -139l-84 -115l-75 56l86 114q67 91 102 131q-94 21 -131 33z" />
<glyph unicode="+" d="M215 563v103h399v417h121v-417h398v-86q-174 -17 -359 -17h-39v-418h-121v418h-399z" />
<glyph unicode="," horiz-adv-x="460" d="M158 68v106h147v-133q0 -89 -11 -212t-32 -179h-80q29 167 29 348q-27 5 -40 20t-13 50z" />
<glyph unicode="-" horiz-adv-x="966" d="M154 565v99h659v-99h-659z" />
<glyph unicode="." horiz-adv-x="454" d="M158 0v174h141v-174h-141z" />
<glyph unicode="/" horiz-adv-x="589" d="M-18 -113l538 1608h111l-539 -1608h-110z" />
<glyph unicode="0" d="M106 688q0 104 1.5 158.5t7.5 120t19.5 106t37 85t59.5 87.5q32 38 63 65.5t66.5 44.5t66.5 27.5t76 15.5t79.5 6t93.5 1q68 0 111 -2.5t94 -11t87.5 -25t76 -45.5t75.5 -72q36 -44 59.5 -87.5t37 -83.5t19.5 -105t7.5 -119t1.5 -158t-1.5 -158.5t-7.5 -120t-19.5 -106 t-37 -85t-59.5 -87.5q-32 -38 -63 -65t-66.5 -44.5t-66 -27.5t-75.5 -15t-79.5 -6t-93.5 -1q-86 0 -137.5 4t-110.5 19t-105.5 47t-91.5 85q-36 44 -59.5 87.5t-37 83.5t-19.5 105t-7.5 119t-1.5 158zM231 698q0 -210 12.5 -313.5t49.5 -161.5q22 -33 51 -58t73.5 -46 t109.5 -32t149 -11q164 0 251 35.5t130 103.5q38 58 50.5 159.5t12.5 313.5q0 211 -12 313t-47 158q-45 71 -133.5 110.5t-251.5 39.5q-162 0 -249.5 -36t-131.5 -104q-36 -58 -50 -162.5t-14 -308.5z" />
<glyph unicode="1" d="M201 0l4 88h452v1165l-393 -217v113l422 235h88v-1296h391v-72q-164 -16 -356 -16h-608z" />
<glyph unicode="2" d="M154 0v229q0 68 18 120.5t61 119.5q55 83 113.5 125.5t138.5 69.5l377 124q117 39 151 85.5t34 156.5q0 50 -6.5 89.5t-21 69t-32 50.5t-46.5 35t-56 22t-69 12.5t-77.5 5.5t-89.5 1q-143 0 -424 -31l-20 64q228 57 461 57q256 0 395 -113q68 -58 91.5 -111t23.5 -124 q0 -72 -15.5 -119.5t-60.5 -103.5q-48 -62 -102.5 -100.5t-129.5 -61.5l-366 -117q-72 -23 -118 -53t-69 -71t-31 -83.5t-8 -105.5v-148h877v-78q-164 -16 -356 -16h-643z" />
<glyph unicode="3" d="M150 39l24 67q206 -30 410 -30q58 0 97.5 1.5t86 6.5t77 14.5t63 25.5t52.5 40t36.5 57t24 77.5t7.5 100.5q0 151 -56.5 217t-195.5 66q-189 0 -303 14v74h318q51 0 85.5 10.5t62.5 39t41 83t13 137.5q0 66 -8.5 112t-33.5 75.5t-49.5 46t-77 24.5t-93 9.5t-119.5 1.5 q-166 0 -438 -31l-24 68q233 59 487 59q175 0 250.5 -25t144.5 -100q51 -55 68.5 -106t17.5 -132q0 -92 -32 -154t-113 -124q-14 -12 -37 -27q47 -17 117 -73q57 -46 79.5 -95t22.5 -127q0 -118 -22.5 -184t-92.5 -131q-86 -80 -184 -113.5t-276 -33.5q-250 0 -430 59z" />
<glyph unicode="4" d="M92 264v76l602 954q35 55 72.5 72.5t105.5 17.5h156v-1022h232v-83q-114 -15 -232 -15v-264h-117v264h-819zM233 362h678v922h-96z" />
<glyph unicode="5" d="M154 39l20 74q217 -31 430 -31q77 0 120 1.5t100 8.5t87 20.5t65 39t51 63.5t27 93.5t11 129.5q0 170 -67 237.5t-232 67.5h-465q-37 0 -74 40.5t-37 78.5v522h932v-81q-174 -17 -356 -17h-459v-418q0 -34 35 -34h422q105 0 171 -19.5t148 -91.5q62 -54 85.5 -113 t23.5 -139q0 -124 -23.5 -202t-91.5 -142q-85 -80 -187.5 -113.5t-289.5 -33.5q-266 0 -446 59z" />
<glyph unicode="6" d="M123 686q0 94 1.5 145t8 117t20.5 108.5t38.5 90t62.5 90.5q41 47 88 79t89.5 49.5t103 26.5t107 11t122.5 2q225 0 405 -59l-20 -68q-242 31 -438 31q-170 0 -262 -38t-138 -108q-36 -56 -49.5 -156t-13.5 -305q108 91 220 123.5t282 32.5q171 0 256.5 -27t158.5 -112 q50 -60 69 -116.5t19 -164.5q0 -114 -25.5 -183t-105.5 -149q-83 -83 -171 -104.5t-279 -21.5q-72 0 -110.5 1.5t-89 9t-84 23t-72 44t-74.5 71.5q-29 34 -48.5 63.5t-33.5 69t-21 71.5t-10.5 93t-4.5 112t-1 148zM248 598q2 -98 10 -168.5t26 -132t47.5 -101t75 -67.5 t108 -40.5t147.5 -12.5q75 0 126 2.5t103 10t85 22t63 37.5t46 57t25.5 81t9.5 109q0 64 -4.5 112.5t-16.5 87t-27 65t-41.5 46t-54.5 30.5t-72 17.5t-87 8.5t-106 2q-353 0 -463 -166z" />
<glyph unicode="7" d="M176 1286v98h1051v-69q0 -91 -41 -178l-553 -1137h-152l584 1147q35 71 35 139h-924z" />
<glyph unicode="8" d="M123 383q0 102 18.5 153t71.5 103q69 66 213 86q-117 25 -164 74q-50 50 -66 95.5t-16 129.5q0 100 16.5 150.5t79.5 113.5q71 71 158 94t254 23t254 -23t158 -94q63 -63 79.5 -113.5t16.5 -150.5q0 -84 -16 -129.5t-66 -95.5q-49 -49 -164 -74q141 -19 213 -86 q53 -52 71.5 -103t18.5 -153q0 -123 -23.5 -178.5t-101.5 -122.5q-64 -56 -192.5 -79t-247.5 -23t-247.5 23t-192.5 79q-78 67 -101.5 122.5t-23.5 178.5zM246 387q0 -83 12 -136.5t39 -91t81 -56.5t125 -27t185 -8t185 8t125 27t81 56.5t39 91t12 136.5q0 81 -16.5 131.5 t-60.5 85t-119 48.5t-195 14h-102q-120 0 -195 -14t-119 -48.5t-60.5 -85t-16.5 -131.5zM299 1032q0 -75 16 -123.5t58.5 -84.5t119 -52t195.5 -16q120 0 196.5 16t119 52.5t58 84.5t15.5 123q0 55 -5.5 93t-21 72.5t-42 55t-70 36t-104.5 22t-146 6.5q-101 0 -169 -10.5 t-112 -30t-67.5 -55.5t-32 -79.5t-8.5 -109.5z" />
<glyph unicode="9" d="M117 936q0 106 29.5 180.5t99.5 145.5q82 85 171.5 114t262.5 29q89 0 138 -4t100.5 -19.5t90.5 -45.5t85 -83q35 -41 57.5 -81t35.5 -77t18.5 -100t7 -115t1.5 -157q0 -107 -1 -160t-7.5 -123.5t-20 -112.5t-38 -89t-62.5 -91q-41 -48 -82 -79t-76.5 -49t-87 -26.5 t-93.5 -10.5t-117 -2q-248 0 -428 59l20 67q234 -30 451 -30q109 0 181.5 20.5t106 48.5t64.5 74q37 56 51.5 157t16.5 298q-72 -64 -130 -95t-137.5 -44t-214.5 -13q-167 0 -248 28t-155 114q-52 62 -71 115t-19 157zM244 948q0 -76 8 -128.5t30 -90t49.5 -59t77.5 -33.5 t103 -15.5t137 -3.5q105 0 177.5 10t122 33t80 51t63.5 74q0 69 -1.5 116t-5.5 97.5t-10.5 83t-18.5 66.5t-27.5 54.5t-39 41t-52 31t-67.5 19t-84.5 11.5t-103.5 3q-131 0 -211 -15.5t-133 -57t-73.5 -109.5t-20.5 -179z" />
<glyph unicode=":" horiz-adv-x="454" d="M158 0v174h141v-174h-141zM158 1028v174h141v-174h-141z" />
<glyph unicode=";" horiz-adv-x="471" d="M158 1028v174h141v-174h-141zM168 68v106h147v-133q0 -89 -11 -212t-32 -179h-79q28 161 28 348q-27 5 -40 20t-13 50z" />
<glyph unicode="&#x3c;" d="M248 545v137l788 334l41 -94l-667 -295v-27l667 -295l-41 -96z" />
<glyph unicode="=" d="M217 322v104h918v-104h-918zM217 793v104h918v-104h-918z" />
<glyph unicode="&#x3e;" d="M270 303l670 295v25l-670 297l43 96l789 -336v-137l-789 -334z" />
<glyph unicode="?" horiz-adv-x="999" d="M76 1348q207 57 424 57q115 0 199 -28t149 -95q64 -64 86 -116t22 -156q0 -106 -24 -156.5t-72 -81.5l-205 -137q-85 -58 -108 -98t-23 -127v-91h-127v97q0 40 4.5 62.5t20.5 51.5q21 36 48.5 62t84.5 67l154 113q82 58 104.5 111.5t22.5 160.5q0 72 -18.5 122.5t-48 79 t-79 44.5t-97.5 20.5t-118 4.5q-111 0 -379 -31zM387 0v186h148v-186h-148z" />
<glyph unicode="@" horiz-adv-x="2058" d="M133 575q0 217 15.5 347.5t63 238t138.5 195.5q115 111 256.5 147.5t421.5 36.5q273 0 417 -29t259 -127q61 -51 101 -110t64.5 -121t36.5 -156.5t15.5 -184.5t3.5 -237q0 -195 -23 -296.5t-94 -172.5q-62 -62 -133 -84t-202 -22q-12 0 -39 27q-21 19 -21 47l-10 176 q-40 -70 -129 -150q-85 -75 -159.5 -97.5t-203.5 -22.5q-144 0 -198.5 13.5t-98.5 55.5q-43 40 -59.5 62.5t-27.5 67.5t-11 122q0 99 17 138.5t98 115.5q84 76 160.5 95.5t248.5 19.5h355v186q0 77 -16 130t-41.5 84t-71.5 48t-93 22t-118 5q-214 0 -418 -51l-27 75 q97 40 174 54q160 26 289 26q123 0 192.5 -20t145.5 -96q63 -63 77.5 -124.5t14.5 -203.5v-678q0 -24 8 -33.5t29 -9.5q66 0 107 10.5t74 39.5t49.5 87t25 145t8.5 222q0 141 -5.5 242.5t-22.5 191t-42 149t-69.5 108.5t-99 76.5t-136.5 46.5t-176.5 25.5t-224.5 6.5 q-163 0 -279 -16t-204.5 -57t-142.5 -101t-88.5 -159t-47 -219.5t-12.5 -293.5q0 -136 7 -238t26.5 -186.5t45.5 -142.5t71 -102.5t97 -70.5t130 -42t161.5 -21.5t200.5 -5.5q263 0 533 37l14 -84q-87 -24 -212 -39t-195.5 -19t-102.5 -4q-99 0 -162.5 2t-142.5 10 t-136.5 23.5t-118.5 43.5t-114 69q-51 39 -87.5 80.5t-61.5 95t-39.5 106.5t-22 132.5t-10 153.5t-2.5 189zM635 309q0 -70 10 -110.5t39 -66.5t76 -35t127 -9q508 0 508 420v78q-161 -25 -299 -25q-128 0 -188 -3t-126 -15t-90.5 -39.5t-40.5 -73.5t-16 -121z" />
<glyph unicode="A" horiz-adv-x="1427" d="M72 0l534 1384h62q52 0 75.5 -7.5t51.5 -28.5q25 -20 38.5 -41t32.5 -68l490 -1239h-133l-144 375h-745l-144 -375h-118zM371 473h671l-305 811h-57z" />
<glyph unicode="B" horiz-adv-x="1435" d="M219 0v1384h602q147 0 202.5 -15t117.5 -77q56 -56 71 -110t15 -158q0 -84 -16 -129.5t-66 -95.5q-61 -61 -90 -74q51 -16 123 -86q53 -52 71.5 -102.5t18.5 -151.5q0 -126 -21.5 -183t-95.5 -124q-55 -49 -118.5 -63.5t-213.5 -14.5h-600zM336 88h565q49 0 86 7t63 17.5 t44 32t28 42t15 56t6.5 66.5t1.5 80q0 135 -50 206t-161 71h-598v-578zM336 764h598q97 0 135.5 71t38.5 199q0 32 -0.5 51.5t-2.5 44t-6 39.5t-11 32.5t-17 27t-25 21t-34.5 17t-44.5 10.5t-56.5 7t-70.5 2h-504v-522z" />
<glyph unicode="C" horiz-adv-x="1347" d="M154 686q0 225 34 337t140 218q55 55 107.5 88.5t117 50t124.5 21t159 4.5q225 0 399 -57l-21 -64q-213 31 -354 31q-174 0 -284 -30t-177.5 -104.5t-93.5 -187t-26 -291.5q0 -176 26.5 -291.5t92 -194t173.5 -112.5t273 -34q142 0 368 32l15 -67q-162 -55 -408 -55 q-174 0 -281.5 33.5t-203.5 131.5q-110 115 -145 219.5t-35 321.5z" />
<glyph unicode="D" horiz-adv-x="1521" d="M219 0v1384h481q58 0 84 -0.5t73.5 -2t71 -5.5t61.5 -11t62.5 -18t55.5 -27t58.5 -38t56.5 -51q51 -51 80 -99.5t44 -117.5t19 -138t4 -190q0 -102 -1.5 -153.5t-9 -113t-23.5 -99t-43.5 -79t-71.5 -85.5q-53 -53 -107.5 -85.5t-122.5 -47.5t-129 -19t-162 -4h-481z M336 94h364q117 0 199.5 11t145 40.5t100 71.5t60.5 112.5t31.5 155.5t8.5 209q0 93 -3 156.5t-12.5 127.5t-25.5 104t-44.5 78t-68 59t-96.5 38t-128.5 23t-166.5 6h-364v-1192z" />
<glyph unicode="E" horiz-adv-x="1261" d="M219 168v1216h926v-98h-809v-522h610v-82q-164 -16 -356 -16h-254v-455q0 -70 22.5 -93.5t83.5 -23.5h703v-78q-164 -16 -357 -16h-391q-58 0 -121 63q-57 55 -57 105z" />
<glyph unicode="F" horiz-adv-x="1175" d="M219 0v1384h866v-98h-749v-514h571v-82q-164 -16 -356 -16h-215v-674h-117z" />
<glyph unicode="G" horiz-adv-x="1490" d="M154 686q0 225 34 337t140 218q55 55 108 88.5t118 50t125 21t159 4.5q219 0 401 -57l-22 -64q-213 31 -357 31q-174 0 -284 -30t-177.5 -104.5t-93.5 -187t-26 -291.5q0 -176 26.5 -291.5t92.5 -194t175.5 -112.5t276.5 -34q131 0 336 30v492h-307v100h432v-461 q0 -58 -12 -93t-60 -83q-41 -41 -161 -58t-257 -17q-174 0 -282.5 33.5t-204.5 131.5q-110 115 -145 219.5t-35 321.5z" />
<glyph unicode="H" horiz-adv-x="1542" d="M219 0v1384h117v-622h872v622h117v-1384h-117v666h-872v-666h-117z" />
<glyph unicode="I" horiz-adv-x="552" d="M219 0v1384h117v-1384h-117z" />
<glyph unicode="J" horiz-adv-x="1114" d="M70 29l6 71q240 -26 411 -26q74 0 119 2.5t84 12.5t58 25t33 45.5t18 67.5t4 97v1060h115v-1062q0 -101 -22 -155.5t-79 -107.5q-52 -47 -116 -63t-197 -16q-125 0 -251.5 15t-182.5 34z" />
<glyph unicode="K" horiz-adv-x="1384" d="M219 0v1384h117v-630h450q62 0 95.5 18.5t54.5 75.5l197 536h129l-209 -546q-19 -47 -41.5 -72t-85.5 -66l-6 -4l378 -696h-149l-324 655h-489v-655h-117z" />
<glyph unicode="L" horiz-adv-x="1179" d="M219 168v1216h117v-1153q0 -137 127 -137h629v-78q-164 -16 -357 -16h-338q-58 0 -121 63q-57 55 -57 105z" />
<glyph unicode="M" horiz-adv-x="1798" d="M219 0v1384h111q44 0 61.5 -5.5t42.5 -24.5q23 -17 35.5 -35.5t26.5 -54.5l393 -992h22l400 992q14 38 25.5 56t33.5 34q25 19 42.5 24.5t62.5 5.5h106v-1384h-121v1272h-20l-455 -1096h-180l-449 1096h-20v-1272h-117z" />
<glyph unicode="N" horiz-adv-x="1611" d="M219 0v1384h117q34 0 47.5 -1t31.5 -8t38 -23q14 -12 24 -21t18 -20l12 -16.5t13.5 -20.5t14.5 -23l696 -1147h47v1280h115v-1384h-129q-38 0 -59 8t-50 31q-27 22 -37.5 34t-30.5 44l-708 1163h-47v-1280h-113z" />
<glyph unicode="O" horiz-adv-x="1552" d="M154 688q0 90 1 135t5 106.5t13 95t25.5 76.5t41.5 76.5t61 69.5q39 39 72 66t71 44.5t66 27t77 14t84 5.5t105 1q82 0 124 -1.5t95.5 -9.5t89 -25.5t77.5 -47t89 -76.5q36 -36 61 -69.5t41.5 -76t25.5 -77t13.5 -95.5t5.5 -106.5t1 -134.5t-1 -134t-5.5 -105 t-13.5 -93.5t-25.5 -75t-41.5 -74.5t-61 -69q-43 -43 -84 -71.5t-78.5 -45.5t-89.5 -25t-98.5 -10.5t-124.5 -2.5t-124.5 2.5t-98.5 10.5t-89.5 25t-78.5 45.5t-84 71.5q-36 36 -61 69t-41.5 75t-25.5 75t-13 94t-5 105.5t-1 134.5zM279 696q0 -107 3 -172.5t13 -140 t31 -116.5t56.5 -85t89 -63.5t128.5 -33.5t176 -13q118 0 200.5 14.5t138 52t87.5 80t48 123.5t20 154.5t4 199.5t-4.5 200t-20.5 154t-48 121.5t-87.5 78t-138 50t-199.5 13.5q-101 0 -175.5 -12t-128 -32t-89 -61t-56.5 -82.5t-31.5 -115t-13.5 -140t-3 -174.5z" />
<glyph unicode="P" horiz-adv-x="1374" d="M219 0v1384h535q155 0 232.5 -20t146.5 -92q57 -59 71.5 -117t14.5 -211q0 -113 -12 -179t-30.5 -95.5t-58.5 -67.5q-74 -69 -146 -93t-222 -24h-414v-485h-117zM336 584h395q79 0 131 4.5t96.5 18t69 35.5t42.5 61.5t24 91t6 127.5q0 65 -2 109t-9 84.5t-17 64.5 t-30.5 45t-44.5 31.5t-63 18t-82 9.5t-107 2h-409v-702z" />
<glyph unicode="Q" horiz-adv-x="1552" d="M154 688q0 90 1 135t5 106.5t13 95t25.5 76.5t41.5 76.5t61 69.5q39 39 72 66t71 44.5t66 27t77 14t84 5.5t105 1q82 0 124 -1.5t95.5 -9.5t89 -25.5t77.5 -47t89 -76.5q36 -36 61 -69.5t41.5 -76t25.5 -77t13.5 -95.5t5.5 -106.5t1 -134.5t-1 -134t-5.5 -105 t-13.5 -93.5t-25.5 -75t-41.5 -74.5t-61 -69q-50 -50 -86 -74l185 -260h-138l-133 213q-55 -21 -122 -27.5t-181 -6.5q-78 0 -124.5 2.5t-98.5 10.5t-89.5 25t-78.5 45.5t-84 71.5q-36 36 -61 69t-41.5 75t-25.5 75t-13 94t-5 105.5t-1 134.5zM279 696q0 -107 3 -172.5 t13 -140t31 -116.5t56.5 -85t89 -63.5t128.5 -33.5t176 -13q118 0 200.5 14.5t138 52t87.5 80t48 123.5t20 154.5t4 199.5t-4.5 200t-20.5 154t-48 121.5t-87.5 78t-138 50t-199.5 13.5q-101 0 -175.5 -12t-128 -32t-89 -61t-56.5 -82.5t-31.5 -115t-13.5 -140t-3 -174.5z " />
<glyph unicode="R" horiz-adv-x="1415" d="M219 0v1384h578q155 0 232.5 -20t146.5 -92q45 -46 59 -69t20.5 -67.5t6.5 -148.5q0 -62 -4.5 -105t-10 -69t-22 -50.5t-26.5 -35t-38 -37.5q-46 -45 -87.5 -68.5t-98.5 -35.5l295 -586h-140l-264 573h-530v-573h-117zM336 670h440q60 0 101 1.5t81 7t65 14.5t47.5 25 t35 37t21.5 52.5t12.5 69.5t3.5 90q0 60 -1.5 99.5t-9 75.5t-16.5 56.5t-30.5 39t-43.5 26.5t-63 14t-81.5 7t-106.5 1h-455v-616z" />
<glyph unicode="S" horiz-adv-x="1282" d="M135 37l23 63q210 -30 366 -30q54 0 85 0.5t79.5 2.5t76.5 6.5t66.5 13t60.5 20.5t47 30.5t38 42.5t22 56.5t9 72.5q0 55 -2.5 84t-12 59t-29.5 47t-55 30l-499 186q-90 35 -119.5 53t-69.5 66q-65 74 -65 176q0 98 23.5 148.5t84.5 111.5q65 65 171 97t229 32 q239 0 413 -57l-22 -64q-213 31 -363 31q-59 0 -108 -4t-108 -19t-99.5 -40.5t-68 -72.5t-27.5 -110q0 -99 21.5 -142.5t92.5 -68.5l504 -186q104 -39 168 -129q66 -98 66 -183q0 -47 -7.5 -84.5t-16 -60.5t-29.5 -49.5t-33.5 -38.5t-42.5 -39q-123 -108 -451 -108 q-244 0 -418 57z" />
<glyph unicode="T" horiz-adv-x="1101" d="M16 1296v88h1069v-88h-491q16 -148 16 -350v-946h-116v946q0 184 18 350h-496z" />
<glyph unicode="U" horiz-adv-x="1503" d="M197 399v985h116v-1017q0 -84 24.5 -141t57 -87t99.5 -45t116 -17.5t142 -2.5q46 0 72.5 0.5t67 2.5t64.5 6t57 11t52 18t42.5 27t36.5 37.5t25.5 49t17.5 63t5 78.5v1017h115v-985q0 -136 -18 -187t-95 -128q-32 -32 -56.5 -49t-52.5 -29.5t-77 -17.5t-101.5 -6.5 t-154.5 -1.5t-155 1.5t-102 6.5t-77 17.5t-52.5 29.5t-56.5 49q-77 77 -94.5 127.5t-17.5 187.5z" />
<glyph unicode="V" horiz-adv-x="1413" d="M72 1384h131l489 -1290h41l473 1290h135l-485 -1294q-15 -41 -57 -63q-4 -2 -13 -8t-14 -8t-13.5 -5.5t-19.5 -4.5t-26 -1h-107z" />
<glyph unicode="W" horiz-adv-x="2043" d="M72 1384h125l354 -1298h41l328 1286h204l342 -1286h39l340 1298h129l-356 -1278q-6 -24 -16.5 -38.5t-34.5 -32.5q-44 -35 -101 -35h-92l-342 1282h-20l-305 -1176q-3 -9 -6.5 -16.5t-6.5 -12t-9.5 -10.5t-10 -9t-14.5 -11.5t-17 -13.5q-18 -13 -26 -18t-24.5 -10 t-37.5 -5h-90z" />
<glyph unicode="X" horiz-adv-x="1210" d="M72 0l387 631q28 45 63 67l23 15q-7 4 -13.5 10.5t-14.5 17t-13 17.5t-15.5 22.5t-15.5 22.5l-397 581h129l395 -596h41l340 596h135l-350 -583q-46 -72 -82 -90l-10 -6l12 -7q34 -19 66 -69l387 -629h-131l-387 645h-43l-375 -645h-131z" />
<glyph unicode="Y" horiz-adv-x="1286" d="M51 1384h121l440 -766h74l426 766h125l-406 -710q-27 -46 -39.5 -63t-37.5 -36q-27 -24 -43 -32v-543h-117v539q-16 4 -55 36q-27 21 -39.5 37.5t-38.5 61.5z" />
<glyph unicode="Z" horiz-adv-x="1222" d="M109 0v23q0 69 57 157l784 1086v22h-809v96h951v-16q0 -73 -45 -145l-791 -1104v-23h856v-80q-164 -16 -356 -16h-647z" />
<glyph unicode="[" horiz-adv-x="583" d="M207 -184v1720h301v-68l-182 -8v-1569l182 -10v-65h-301z" />
<glyph unicode="\" horiz-adv-x="589" d="M-18 1495h110l539 -1608h-111z" />
<glyph unicode="]" horiz-adv-x="583" d="M78 -117l182 8v1569l-182 10v66h299v-1720h-299v67z" />
<glyph unicode="^" d="M207 670l411 559h123l406 -553l-84 -72l-373 492h-31l-372 -492z" />
<glyph unicode="_" horiz-adv-x="917" d="M0 -78h918v-100h-918v100z" />
<glyph unicode="`" horiz-adv-x="512" d="M84 1624h156l188 -252h-121z" />
<glyph unicode="a" horiz-adv-x="1267" d="M98 301q0 101 17 149t84 115q62 62 157.5 83.5t266.5 21.5h352v186q0 77 -15.5 130t-41 84t-71.5 48t-92.5 22t-117.5 5q-214 0 -418 -51l-29 75q93 39 179 54q137 26 286 26q122 0 190.5 -19.5t145.5 -96.5q63 -63 77.5 -124.5t14.5 -203.5v-805h-84q-8 35 -16 248 q-36 -67 -129 -148q-84 -75 -157.5 -97.5t-202.5 -22.5q-150 0 -205.5 12t-98.5 53q-57 52 -74.5 97t-17.5 159zM207 311q0 -139 52.5 -185t207.5 -46q508 0 508 428v76q-97 -13 -299 -13q-91 0 -139 -1t-108.5 -6t-88 -15.5t-59.5 -28.5t-44.5 -46.5t-21 -68t-8.5 -94.5z " />
<glyph unicode="b" horiz-adv-x="1427" d="M195 0v1532h98q10 -130 10 -195v-307q71 104 190 161.5t279 57.5q121 0 195.5 -22.5t152.5 -85.5q50 -41 81 -77t51 -73t29 -92t12 -111t3 -153q0 -167 -19 -269t-53 -157t-98 -107q-97 -82 -169 -102t-222 -20q-55 0 -113.5 16t-119 49t-117 92.5t-96.5 138.5l2 -8 q0 -180 -15 -268h-81zM303 508q0 -108 36 -190.5t100 -132.5t145.5 -74.5t179.5 -24.5q89 0 154.5 13.5t112 45t76 73t46 106.5t23 137t6.5 172q0 149 -18.5 244t-65.5 155.5t-120.5 84.5t-189.5 24q-254 0 -369.5 -92t-115.5 -301v-240z" />
<glyph unicode="c" horiz-adv-x="1228" d="M129 604q0 197 33.5 304.5t126.5 195.5q153 145 387 145q52 0 93 -3.5t94.5 -12t68.5 -10.5q100 -16 168 -43l-17 -74q-248 41 -415 41q-124 0 -203 -25.5t-128.5 -88t-69 -158t-19.5 -244.5q0 -155 18.5 -254.5t68.5 -171t138 -102.5t225 -31q150 0 416 39l14 -76 q-77 -25 -165 -39q-104 -16 -265 -16q-264 0 -419 137q-84 74 -117 183t-33 304z" />
<glyph unicode="d" horiz-adv-x="1427" d="M129 588q0 196 32 286.5t150 208.5q100 100 187.5 133t234.5 33q264 0 391 -186v274q0 19 9 195h98v-1532h-82q-14 82 -14 266v8q-40 -78 -96 -137t-116.5 -92t-118.5 -49t-112 -16q-142 0 -205 20t-165 102q-49 38 -80.5 74.5t-59 92t-40.5 134t-13 185.5zM246 608 q0 -103 10.5 -179.5t38.5 -143.5t75 -109t120.5 -66t173.5 -24q98 0 179.5 24.5t145.5 74.5t99.5 132.5t35.5 190.5v285q0 177 -101 262.5t-312 85.5q-259 0 -362 -122t-103 -411z" />
<glyph unicode="e" horiz-adv-x="1331" d="M129 604q0 198 33 304t125 194q84 81 188.5 114t247.5 33q135 0 227.5 -33.5t159.5 -113.5q71 -83 86.5 -130.5t15.5 -146.5q0 -93 -59 -155q-45 -46 -83.5 -66t-92.5 -20h-389q-130 0 -340 28q1 -120 14 -203t45 -150.5t88 -106.5t141 -59.5t205 -20.5q148 0 414 37 l14 -74q-86 -27 -163 -39q-101 -16 -263 -16q-157 0 -269.5 32.5t-194.5 104.5q-84 74 -117 184t-33 303zM248 684h721q42 0 62 3t38 16t23.5 39.5t5.5 74.5q0 102 -23 168t-74 101.5t-117 49t-167 13.5q-134 0 -221.5 -24t-142 -81t-78 -142.5t-27.5 -217.5z" />
<glyph unicode="f" horiz-adv-x="688" d="M88 1130v89q63 5 178 8q0 117 84 217q39 46 81.5 70t69 28t64.5 4q91 0 158 -22l-29 -92q-74 12 -145 12q-80 0 -128 -43t-48 -127v-45h258v-99h-258v-1130h-107v1130h-178z" />
<glyph unicode="g" horiz-adv-x="1359" d="M154 821q0 128 24.5 187t104.5 131t157 91t224 19q109 0 173 -8.5t119 -38.5l121 191h135l-178 -244q6 -3 13 -10q78 -72 102.5 -131t24.5 -187q0 -129 -24.5 -189t-102.5 -132q-80 -72 -158 -91.5t-225 -19.5q-116 0 -182 9.5t-124 43.5q-43 -59 -43 -133 q0 -79 38.5 -114t115.5 -35h412q121 0 174 -10t106 -52q60 -48 74 -77t14 -117q0 -82 -14.5 -123.5t-60.5 -85.5q-52 -52 -112 -68t-169 -16h-393q-51 0 -148.5 14t-187.5 43l24 72q66 -13 161 -23t149 -10h401q101 0 158 22t77.5 61t20.5 104q0 100 -51.5 132.5 t-202.5 32.5h-422q-75 0 -117.5 13.5t-91.5 56.5q-38 35 -53.5 74.5t-15.5 95.5q0 43 12.5 77.5t52.5 74.5l33 32l-16 17q-80 72 -104.5 131.5t-24.5 189.5zM262 821q0 -97 28 -163.5t83 -103t125 -52t166 -15.5t166 15.5t125 52t82.5 103t27.5 163.5q0 96 -27 162 t-82 102.5t-125 52t-167 15.5q-96 0 -166.5 -15.5t-125.5 -52t-82.5 -102.5t-27.5 -162z" />
<glyph unicode="h" horiz-adv-x="1386" d="M195 0v1532h88q4 -20 11 -208.5t9 -297.5q10 18 53 76q65 84 158.5 115.5t226.5 31.5q160 0 226 -18.5t141 -93.5q58 -58 74 -124.5t16 -181.5v-831h-106v780q0 82 -5 137.5t-19 100t-35.5 69.5t-60 42t-86 22.5t-118.5 5.5q-257 0 -361 -117.5t-104 -386.5v-653h-108z " />
<glyph unicode="i" horiz-adv-x="450" d="M154 1374v158h143v-158h-143zM172 0v1229h107v-1229h-107z" />
<glyph unicode="j" horiz-adv-x="509" d="M-39 -209q149 0 200.5 33.5t51.5 128.5v1276h106v-1223q0 -129 -86 -215q-62 -62 -116.5 -80t-155.5 -18v98zM195 1374v158h143v-158h-143z" />
<glyph unicode="k" horiz-adv-x="1224" d="M219 0v1536h84q5 -21 13 -236.5t8 -298.5v-299h237q60 0 87.5 12t53.5 54l281 461h121l-287 -469q-26 -42 -42.5 -59.5t-57.5 -45.5l454 -655h-147l-395 612q-23 -6 -74 -6h-231v-606h-105z" />
<glyph unicode="l" horiz-adv-x="595" d="M197 154v1378h86q5 -21 12 -235t8 -300v-825q0 -34 24 -61t56 -27h170v-70q-100 -14 -174 -14q-38 0 -63.5 9t-61.5 38q-57 46 -57 107z" />
<glyph unicode="m" horiz-adv-x="2197" d="M195 0v1229h88q15 -72 18 -205q18 28 55 78q67 86 149.5 116.5t213.5 30.5q144 0 209 -19t139 -93q57 -60 76 -136q26 48 67 101q67 86 150 116.5t215 30.5q144 0 208 -19t140 -93q58 -58 74 -124.5t16 -181.5v-831h-106v780q0 82 -5 137.5t-18.5 100t-34 69.5t-56.5 42 t-80.5 22.5t-110.5 5.5q-241 0 -343 -118t-102 -386v-653h-106v780q0 82 -5 137.5t-18.5 100t-34.5 69.5t-57 42t-80.5 22.5t-110.5 5.5q-235 0 -338.5 -113.5t-103.5 -365.5v-678h-108z" />
<glyph unicode="n" horiz-adv-x="1382" d="M195 0v1229h88q15 -72 18 -205q18 28 55 78q65 84 158.5 115.5t226.5 31.5q160 0 226 -18.5t141 -93.5q58 -58 74 -124.5t16 -181.5v-831h-106v780q0 82 -5 137.5t-19 100t-35.5 69.5t-60 42t-86 22.5t-118.5 5.5q-252 0 -358.5 -112.5t-106.5 -366.5v-678h-108z" />
<glyph unicode="o" horiz-adv-x="1394" d="M129 604q0 200 31.5 299t136.5 205q88 88 165 114.5t234 26.5q164 0 238.5 -23t175.5 -116q43 -40 71 -77.5t45.5 -75t26 -90.5t11 -105.5t2.5 -138.5q0 -201 -31 -299.5t-135 -202.5q-89 -89 -167 -115t-237 -26q-114 0 -170 7.5t-112.5 36.5t-128.5 95q-54 49 -85 92.5 t-47 103.5t-20 120.5t-4 168.5zM248 612q0 -140 20 -235t69.5 -166.5t138 -105t220.5 -33.5q245 0 348 126t103 418q0 140 -20.5 236t-70.5 167t-138.5 104.5t-221.5 33.5q-244 0 -346 -125t-102 -420z" />
<glyph unicode="p" horiz-adv-x="1425" d="M195 -371v1600h96q8 -131 10 -201q151 221 469 221q123 0 197.5 -22.5t152.5 -85.5q50 -40 81.5 -76.5t51.5 -73t28.5 -92t11.5 -111t3 -153.5q0 -167 -19 -269t-53 -157t-98 -107q-99 -82 -171 -102t-222 -20q-72 0 -145.5 24.5t-152.5 87.5t-132 156v-346 q0 -78 -7.5 -163t-14.5 -110h-86zM303 508q0 -108 35.5 -190.5t99 -132.5t145 -74.5t179.5 -24.5q89 0 154.5 13.5t112 45t76 73t46 106.5t23 137t6.5 172q0 120 -12 203t-38.5 143.5t-73.5 95t-111.5 50.5t-158.5 16q-254 0 -368.5 -92t-114.5 -301v-240z" />
<glyph unicode="q" horiz-adv-x="1425" d="M129 588q0 196 32 286.5t150 208.5q100 100 187.5 133t234.5 33q264 0 391 -186q1 29 11 166h96v-1600h-86q-7 25 -15 110t-8 163v346q-53 -93 -132 -156t-152.5 -87.5t-145.5 -24.5q-142 0 -205 20t-165 102q-49 38 -80.5 74.5t-59 92t-40.5 134t-13 185.5zM246 608 q0 -103 10.5 -179.5t38.5 -143.5t75 -109t120.5 -66t173.5 -24q98 0 179.5 24.5t144.5 74.5t98.5 132.5t35.5 190.5v285q0 177 -100.5 262.5t-310.5 85.5q-259 0 -362 -122t-103 -411z" />
<glyph unicode="r" horiz-adv-x="819" d="M195 0v1229h88q7 -30 13.5 -109t6.5 -153q27 50 68 102q39 51 76 84t70.5 52.5t81 29t89 12.5t113.5 2v-84q-117 0 -203.5 -26.5t-155 -89.5t-104 -178t-35.5 -281v-590h-108z" />
<glyph unicode="s" horiz-adv-x="1173" d="M154 31l18 73q186 -26 342 -26q63 0 108.5 2t97 9t86 21t65 35.5t45 56t14.5 79.5q0 36 -1 53.5t-5.5 42.5t-14.5 38.5t-28 30t-45.5 29t-67.5 25.5l-334 110q-19 6 -35.5 13.5t-32.5 17.5t-25 16t-24 20.5t-19 18t-20 20.5t-18 19q-88 91 -88 176q0 88 20.5 133t81.5 99 q118 106 322 106q239 0 395 -53l-18 -72q-189 27 -357 27q-62 0 -106 -3.5t-89 -16t-73 -33.5t-45.5 -58t-17.5 -88q0 -63 10.5 -100.5t49 -71t112.5 -57.5l334 -111q58 -20 93 -44.5t72 -63.5q86 -92 86 -193q0 -64 -15 -107t-34 -64t-63 -60q-51 -45 -128 -68.5 t-132.5 -27.5t-139.5 -4q-215 0 -376 51z" />
<glyph unicode="t" horiz-adv-x="749" d="M113 1130v89q113 8 174 10v223h106v-223h225v-99h-225v-958q0 -34 24.5 -61t53.5 -27h168v-72q-83 -12 -172 -12q-37 0 -62 9t-63 38q-55 44 -55 107v976h-174z" />
<glyph unicode="u" horiz-adv-x="1425" d="M197 397v832h106v-772q0 -82 5 -137t19.5 -98.5t36.5 -67.5t61.5 -40t87.5 -21t122 -5q133 0 222 27.5t143 89t77 151.5t23 224v649h106v-1229h-90q-16 62 -16 238q-33 -54 -76 -103q-78 -91 -161 -123t-210 -32q-161 0 -226.5 18t-139.5 92q-59 59 -74.5 123.5 t-15.5 183.5z" />
<glyph unicode="v" horiz-adv-x="1292" d="M94 1229h123l414 -1129h41l401 1129h125l-397 -1102q-4 -10 -7.5 -18.5t-6.5 -14.5t-7.5 -12t-7.5 -9.5t-9 -8.5l-9 -7.5t-11 -8.5l-12 -9q-31 -24 -50 -31.5t-63 -7.5h-67z" />
<glyph unicode="w" horiz-adv-x="1968" d="M92 1229h121l342 -1129h41l278 1108h222l284 -1108h41l330 1129h125l-338 -1133q-2 -8 -5.5 -20.5t-4.5 -16t-5 -10.5t-9.5 -11.5t-14.5 -10.5q-37 -27 -82 -27h-123l-293 1120h-26l-273 -1024q-2 -6 -4 -15.5t-2.5 -13t-2.5 -9.5t-4 -8.5t-5 -7t-7.5 -8t-10.5 -7.5 q-40 -27 -84 -27h-107z" />
<glyph unicode="x" horiz-adv-x="1165" d="M92 1229h127l350 -529h41l330 529h129l-350 -539q-5 -8 -8 -12.5t-7 -10t-5.5 -7l-6 -6l-5.5 -5.5t-8.5 -7t-10.5 -9q-4 -4 -6 -4l6 -6q44 -35 63 -68l340 -555h-129l-334 565h-43l-338 -565h-127l353 555q18 29 61 68l6 6q-2 0 -6 4q-23 20 -30 27.5t-21 29.5z" />
<glyph unicode="y" horiz-adv-x="1294" d="M94 1229h123l414 -1129h43l401 1129h125l-498 -1374q-19 -53 -41.5 -85.5t-74.5 -88.5q-43 -44 -73 -58t-97 -14q-76 0 -201 33v96q127 -25 193 -25q70 0 112 36.5t68 109.5l49 141h-78z" />
<glyph unicode="z" horiz-adv-x="1062" d="M84 0v27q0 33 5.5 55.5t25.5 50.5l555 801q90 129 151 190v19h-680v86h807v-43q0 -50 -16 -76l-567 -815q-99 -138 -152 -191v-18h764v-86h-893z" />
<glyph unicode="{" horiz-adv-x="587" d="M131 643v57q16 1 31 5t34.5 15t31.5 35.5t12 59.5v451q0 99 29 151.5t124 120.5l31 -35q-39 -42 -52.5 -95.5t-13.5 -152.5v-344q0 -99 -14 -137t-78 -102q64 -64 78 -102.5t14 -137.5v-344q0 -99 13.5 -152.5t52.5 -95.5l-31 -35q-96 69 -124.5 122.5t-28.5 152.5v448 q0 35 -12 59.5t-31.5 35.5t-34.5 15t-31 5z" />
<glyph unicode="|" horiz-adv-x="489" d="M195 -350v1886h100v-1886h-100z" />
<glyph unicode="}" horiz-adv-x="587" d="M166 -160q37 42 50 95t13 153v344q0 98 14.5 137t78.5 103q-64 64 -78.5 102.5t-14.5 136.5v344q0 100 -13 153t-50 95l29 35q95 -68 124 -120.5t29 -151.5v-451q0 -35 12 -59.5t31.5 -35.5t34.5 -15t31 -5v-57q-16 -1 -31 -5t-34.5 -15t-31.5 -35.5t-12 -59.5v-448 q0 -99 -28.5 -152.5t-124.5 -122.5z" />
<glyph unicode="~" d="M197 606q130 111 258 111q68 0 248.5 -55.5t222.5 -55.5q87 0 194 56l35 -56q-128 -110 -258 -110q-68 0 -247.5 55t-221.5 55q-90 0 -195 -55z" />
<glyph unicode="&#xa2;" d="M201 670q0 181 33 275.5t128 180.5q136 125 304 144v217h94v-213q47 -1 86 -5t88 -12t67 -10q95 -15 168 -41l-12 -76q-248 41 -418 41q-227 0 -323.5 -107t-96.5 -368q0 -116 13.5 -197t44 -140.5t84 -93.5t128 -50t181.5 -16q152 0 418 39l12 -74q-74 -26 -166 -41 q-110 -17 -264 -17h-10v-208h-94v215q-200 23 -316 131q-87 77 -118 162.5t-31 263.5z" />
<glyph unicode="&#xa3;" d="M182 0v70q91 43 121.5 93t30.5 144v361h-152v82h152v262q0 97 28.5 157t83.5 115q66 66 147 93.5t187 27.5q226 0 406 -59l-23 -68q-213 31 -368 31q-71 0 -120.5 -6.5t-95.5 -25t-73.5 -52t-43.5 -88.5t-16 -133v-254h441v-66q-164 -16 -357 -16h-84v-301 q0 -77 -13.5 -123.5t-59.5 -102.5q-21 -27 -41 -47h915v-78q-164 -16 -356 -16h-709z" />
<glyph unicode="&#xa5;" d="M106 1384h121l447 -751h74l430 751h125l-433 -774h256v-71q-174 -17 -354 -17v-213h361v-71q-174 -17 -361 -17v-221h-117v221h-372v88h372v213h-368v88h270z" />
<glyph unicode="&#xa8;" horiz-adv-x="686" d="M84 1372v152h131v-152h-131zM471 1372v152h131v-152h-131z" />
<glyph unicode="&#xa9;" horiz-adv-x="1783" d="M131 666q0 159 19.5 260.5t59 170.5t114.5 144q48 47 99 79t97.5 50t111.5 27t120 11.5t145 2.5q210 0 317 -25t222 -112q51 -39 86.5 -77t60 -86t38.5 -93t21 -115t9 -132.5t2 -164.5q0 -238 -40.5 -357t-154.5 -229q-49 -46 -99 -77t-96 -48.5t-111.5 -26.5t-119.5 -11 t-145 -2q-209 0 -315.5 24.5t-221.5 108.5q-45 33 -78 68.5t-56.5 69.5t-39 81t-25 88t-14 106.5t-5.5 120t-1 144.5zM236 649q0 -152 13 -260t46 -188.5t79.5 -130t124 -79.5t169 -41t223.5 -11q78 0 138.5 3.5t121 13t106 26t88.5 42.5t73.5 62.5t56.5 86t41 113 t23.5 143.5t8.5 177q0 154 -13 264t-45.5 192t-79.5 132t-124.5 80.5t-169.5 41.5t-225 11q-88 0 -154.5 -4.5t-133 -17.5t-113.5 -35.5t-91 -58t-72.5 -86t-50 -119t-31 -157.5t-9.5 -200zM432 627q0 165 25.5 247.5t103.5 163.5q76 78 148 98.5t209 20.5q172 0 296 -41 l-14 -82q-146 25 -266 25q-88 0 -144.5 -5.5t-102 -24t-69 -45t-39 -77.5t-20 -111.5t-4.5 -156.5q0 -94 5.5 -157.5t21.5 -115t40.5 -81t68 -49t98 -26.5t135.5 -7q126 0 276 22l10 -82q-118 -39 -309 -39q-121 0 -197 21t-145 92q-79 79 -103 161t-24 249z" />
<glyph unicode="&#xab;" horiz-adv-x="1316" d="M158 547v137l469 473l67 -49q-88 -115 -235 -272l-183 -199v-29l183 -200q129 -139 235 -273l-67 -63zM594 547v137l469 473l67 -49q-88 -115 -235 -272l-182 -199v-29l182 -200q129 -139 235 -273l-67 -63z" />
<glyph unicode="&#xad;" horiz-adv-x="966" d="M154 565v99h659v-99h-659z" />
<glyph unicode="&#xae;" horiz-adv-x="1783" d="M131 666q0 159 19.5 260.5t59 170.5t114.5 144q48 47 99 79t97.5 50t111.5 27t120 11.5t145 2.5q210 0 317 -25t222 -112q51 -39 86.5 -77t60 -86t38.5 -93t21 -115t9 -132.5t2 -164.5q0 -238 -40.5 -357t-154.5 -229q-49 -46 -99 -77t-96 -48.5t-111.5 -26.5t-119.5 -11 t-145 -2q-209 0 -315.5 24.5t-221.5 108.5q-45 33 -78 68.5t-56.5 69.5t-39 81t-25 88t-14 106.5t-5.5 120t-1 144.5zM236 649q0 -152 13 -260t46 -188.5t79.5 -130t124 -79.5t169 -41t223.5 -11q78 0 138.5 3.5t121 13t106 26t88.5 42.5t73.5 62.5t56.5 86t41 113 t23.5 143.5t8.5 177q0 154 -13 264t-45.5 192t-79.5 132t-124.5 80.5t-169.5 41.5t-225 11q-88 0 -154.5 -4.5t-133 -17.5t-113.5 -35.5t-91 -58t-72.5 -86t-50 -119t-31 -157.5t-9.5 -200zM551 125v1014h401q131 0 182 -13t105 -69q33 -34 44 -51t16.5 -49t5.5 -99 q0 -78 -9 -122.5t-21.5 -62.5t-43.5 -46q-41 -37 -70 -56.5t-67 -29.5l213 -416h-131l-193 403h-321v-403h-111zM662 631h268q90 0 135.5 6t76 30.5t38.5 64t8 114.5q0 143 -35.5 169.5t-210.5 26.5h-280v-411z" />
<glyph unicode="&#xb4;" horiz-adv-x="512" d="M84 1372l188 252h156l-223 -252h-121z" />
<glyph unicode="&#xb8;" horiz-adv-x="430" d="M76 -354l20 82l49 -2q60 0 76.5 14t16.5 43q0 20 -12.5 33t-30 21t-34.5 18t-29.5 31.5t-12.5 54.5q0 41 16 73h60v-73q55 -22 87.5 -41.5t45.5 -42t15.5 -36.5t2.5 -44q0 -25 -6 -42.5t-14 -26t-27 -25.5q-60 -52 -147 -52q-29 0 -76 15z" />
<glyph unicode="&#xbb;" horiz-adv-x="1316" d="M186 123q85 108 236 270l182 199v29l-182 200q-155 170 -236 273l68 63l469 -475v-137l-469 -473zM623 123q109 135 235 270l182 199v29l-182 200q-127 139 -235 273l67 63l471 -475v-137l-471 -473z" />
<glyph unicode="&#xd3;" horiz-adv-x="1552" d="M154 688q0 90 1 135t5 106.5t13 95t25.5 76.5t41.5 76.5t61 69.5q39 39 72 66t71 44.5t66 27t77 14t84 5.5t105 1q82 0 124 -1.5t95.5 -9.5t89 -25.5t77.5 -47t89 -76.5q36 -36 61 -69.5t41.5 -76t25.5 -77t13.5 -95.5t5.5 -106.5t1 -134.5t-1 -134t-5.5 -105 t-13.5 -93.5t-25.5 -75t-41.5 -74.5t-61 -69q-43 -43 -84 -71.5t-78.5 -45.5t-89.5 -25t-98.5 -10.5t-124.5 -2.5t-124.5 2.5t-98.5 10.5t-89.5 25t-78.5 45.5t-84 71.5q-36 36 -61 69t-41.5 75t-25.5 75t-13 94t-5 105.5t-1 134.5zM279 696q0 -107 3 -172.5t13 -140 t31 -116.5t56.5 -85t89 -63.5t128.5 -33.5t176 -13q118 0 200.5 14.5t138 52t87.5 80t48 123.5t20 154.5t4 199.5t-4.5 200t-20.5 154t-48 121.5t-87.5 78t-138 50t-199.5 13.5q-101 0 -175.5 -12t-128 -32t-89 -61t-56.5 -82.5t-31.5 -115t-13.5 -140t-3 -174.5zM690 1526 l189 252h155l-223 -252h-121z" />
<glyph unicode="&#xf3;" horiz-adv-x="1394" d="M129 604q0 200 31.5 299t136.5 205q88 88 165 114.5t234 26.5q164 0 238.5 -23t175.5 -116q43 -40 71 -77.5t45.5 -75t26 -90.5t11 -105.5t2.5 -138.5q0 -201 -31 -299.5t-135 -202.5q-89 -89 -167 -115t-237 -26q-114 0 -170 7.5t-112.5 36.5t-128.5 95q-54 49 -85 92.5 t-47 103.5t-20 120.5t-4 168.5zM248 612q0 -140 20 -235t69.5 -166.5t138 -105t220.5 -33.5q245 0 348 126t103 418q0 140 -20.5 236t-70.5 167t-138.5 104.5t-221.5 33.5q-244 0 -346 -125t-102 -420zM559 1372l189 252h155l-223 -252h-121z" />
<glyph unicode="&#x104;" horiz-adv-x="1427" d="M72 0l534 1384h62q51 0 71 -7t49 -29q28 -23 44.5 -44t33.5 -65l490 -1239q-91 -40 -113 -64.5t-22 -78.5q0 -60 29.5 -90.5t101.5 -30.5v-98q-113 0 -168 53q-45 41 -56.5 70t-11.5 89q0 59 25.5 92t81.5 58l-144 375h-745l-144 -375h-118zM371 473h671l-305 811h-57z " />
<glyph unicode="&#x105;" horiz-adv-x="1267" d="M98 301q0 101 17 149t84 115q71 71 155.5 88t268.5 17h352v186q0 77 -15.5 130t-41 84t-71.5 48t-92.5 22t-117.5 5q-214 0 -418 -51l-29 75q96 40 175 54q163 26 290 26q122 0 190.5 -19.5t145.5 -96.5q63 -63 77.5 -124.5t14.5 -203.5v-805h-30q-33 0 -56 -14.5 t-34 -39t-15 -47.5t-4 -49q0 -57 29.5 -85.5t99.5 -28.5v-98q-115 0 -166 53q-44 45 -55.5 73t-11.5 86q0 77 34.5 118.5t120.5 76.5q-12 98 -12 201q-34 -58 -129 -146q-84 -75 -157.5 -97.5t-202.5 -22.5q-150 0 -205.5 12t-98.5 53q-57 52 -74.5 97t-17.5 159zM217 309 q0 -134 48.5 -177.5t201.5 -43.5q266 0 387 118.5t121 379.5q-179 -25 -299 -25q-63 0 -99.5 -0.5t-84 -2t-73 -5t-58.5 -10t-49 -16t-35.5 -23.5t-28 -32t-17.5 -42.5t-11.5 -54t-2.5 -66.5z" />
<glyph unicode="&#x106;" horiz-adv-x="1347" d="M154 686q0 225 34 337t140 218q55 55 107.5 88.5t117 50t124.5 21t159 4.5q225 0 399 -57l-21 -64q-213 31 -354 31q-174 0 -284 -30t-177.5 -104.5t-93.5 -187t-26 -291.5q0 -176 26.5 -291.5t92 -194t173.5 -112.5t273 -34q142 0 368 32l15 -67q-162 -55 -408 -55 q-174 0 -281.5 33.5t-203.5 131.5q-110 115 -145 219.5t-35 321.5zM657 1526l189 252h155l-223 -252h-121z" />
<glyph unicode="&#x107;" horiz-adv-x="1228" d="M129 604q0 197 33.5 304.5t126.5 195.5q153 145 387 145q52 0 93 -3.5t94.5 -12t68.5 -10.5q100 -16 168 -43l-17 -74q-248 41 -415 41q-124 0 -203 -25.5t-128.5 -88t-69 -158t-19.5 -244.5q0 -155 18.5 -254.5t68.5 -171t138 -102.5t225 -31q150 0 416 39l14 -76 q-77 -25 -165 -39q-104 -16 -265 -16q-264 0 -419 137q-84 74 -117 183t-33 304zM522 1372l189 252h155l-223 -252h-121z" />
<glyph unicode="&#x118;" horiz-adv-x="1261" d="M219 168v1216h926v-98h-809v-522h610v-82q-164 -16 -356 -16h-254v-455q0 -70 22.5 -93.5t83.5 -23.5h703v-78q-87 -49 -109 -78.5t-22 -87.5q0 -57 29.5 -85.5t101.5 -28.5v-98q-113 0 -168 53q-45 41 -56.5 70t-11.5 89q0 61 20.5 93t74.5 57h-607q-58 0 -121 63 q-57 55 -57 105z" />
<glyph unicode="&#x119;" horiz-adv-x="1331" d="M129 604q0 197 35 306t129 196q89 82 187.5 112.5t242.5 30.5q135 0 227.5 -33.5t159.5 -113.5q71 -83 86.5 -130.5t15.5 -146.5q0 -93 -59 -155q-45 -46 -83.5 -66t-92.5 -20h-389q-101 0 -340 26q1 -119 14 -202t45.5 -150.5t88.5 -106t140.5 -59t204.5 -20.5 q148 0 414 37l14 -74q-49 -25 -78.5 -46.5t-42 -45.5t-15.5 -42t-3 -51q0 -57 29.5 -85.5t101.5 -28.5v-98q-115 0 -168 53q-43 43 -54 71.5t-11 87.5q0 93 55 140q-87 -10 -240 -10q-157 0 -269.5 32.5t-194.5 104.5q-84 74 -117 184t-33 303zM248 684h721q42 0 62 3t38 16 t23.5 39.5t5.5 74.5q0 102 -23 168t-74 101.5t-117 49t-167 13.5q-133 0 -220.5 -24.5t-142 -82t-78.5 -142.5t-28 -216z" />
<glyph unicode="&#x141;" horiz-adv-x="1179" d="M66 543v112l153 66v663h117v-614l299 127v-117l-299 -125v-424q0 -137 127 -137h629v-78q-164 -16 -357 -16h-338q-58 0 -121 63q-57 55 -57 105v438z" />
<glyph unicode="&#x142;" horiz-adv-x="595" d="M66 543v104l131 47v838h86q5 -21 12.5 -235t7.5 -300v-262l195 72v-105l-195 -71v-459q0 -34 24 -61t56 -27h170v-70q-100 -14 -174 -14q-38 0 -63.5 9t-61.5 38q-57 46 -57 107v436z" />
<glyph unicode="&#x143;" horiz-adv-x="1611" d="M219 0v1384h117q34 0 47.5 -1t31.5 -8t38 -23q14 -12 24 -21t18 -20l12 -16.5t13.5 -20.5t14.5 -23l696 -1147h47v1280h115v-1384h-129q-38 0 -59 8t-50 31q-27 22 -37.5 34t-30.5 44l-708 1163h-47v-1280h-113zM748 1526l188 252h156l-224 -252h-120z" />
<glyph unicode="&#x144;" horiz-adv-x="1382" d="M195 0v1229h88q15 -72 18 -205q18 28 55 78q65 84 158.5 115.5t226.5 31.5q160 0 226 -18.5t141 -93.5q58 -58 74 -124.5t16 -181.5v-831h-106v780q0 82 -5 137.5t-19 100t-35.5 69.5t-60 42t-86 22.5t-118.5 5.5q-252 0 -358.5 -112.5t-106.5 -366.5v-678h-108z M647 1372l189 252h155l-223 -252h-121z" />
<glyph unicode="&#x15a;" horiz-adv-x="1282" d="M135 37l23 63q210 -30 366 -30q54 0 85 0.5t79.5 2.5t76.5 6.5t66.5 13t60.5 20.5t47 30.5t38 42.5t22 56.5t9 72.5q0 55 -2.5 84t-12 59t-29.5 47t-55 30l-499 186q-90 35 -119.5 53t-69.5 66q-65 74 -65 176q0 98 23.5 148.5t84.5 111.5q65 65 171 97t229 32 q239 0 413 -57l-22 -64q-213 31 -363 31q-59 0 -108 -4t-108 -19t-99.5 -40.5t-68 -72.5t-27.5 -110q0 -99 21.5 -142.5t92.5 -68.5l504 -186q104 -39 168 -129q66 -98 66 -183q0 -47 -7.5 -84.5t-16 -60.5t-29.5 -49.5t-33.5 -38.5t-42.5 -39q-123 -108 -451 -108 q-244 0 -418 57zM541 1526l188 252h156l-223 -252h-121z" />
<glyph unicode="&#x15b;" horiz-adv-x="1173" d="M154 31l18 73q186 -26 342 -26q63 0 108.5 2t97 9t86 21t65 35.5t45 56t14.5 79.5q0 36 -1 53.5t-5.5 42.5t-14.5 38.5t-28 30t-45.5 29t-67.5 25.5l-334 110q-19 6 -35.5 13.5t-32.5 17.5t-25 16t-24 20.5t-19 18t-20 20.5t-18 19q-88 91 -88 176q0 88 20.5 133t81.5 99 q118 106 322 106q239 0 395 -53l-18 -72q-189 27 -357 27q-62 0 -106 -3.5t-89 -16t-73 -33.5t-45.5 -58t-17.5 -88q0 -63 10.5 -100.5t49 -71t112.5 -57.5l334 -111q58 -20 93 -44.5t72 -63.5q86 -92 86 -193q0 -64 -15 -107t-34 -64t-63 -60q-51 -45 -128 -68.5 t-132.5 -27.5t-139.5 -4q-215 0 -376 51zM459 1372l188 252h156l-223 -252h-121z" />
<glyph unicode="&#x179;" horiz-adv-x="1222" d="M109 0v23q0 69 57 157l784 1086v22h-809v96h951v-16q0 -73 -45 -145l-791 -1104v-23h856v-80q-164 -16 -356 -16h-647zM502 1526l188 252h156l-223 -252h-121z" />
<glyph unicode="&#x17a;" horiz-adv-x="1062" d="M84 0v27q0 33 5.5 55.5t25.5 50.5l555 801q90 129 151 190v19h-680v86h807v-43q0 -50 -16 -76l-567 -815q-99 -138 -152 -191v-18h764v-86h-893zM416 1372l188 252h156l-223 -252h-121z" />
<glyph unicode="&#x17b;" horiz-adv-x="1222" d="M109 0v23q0 69 57 157l784 1086v22h-809v96h951v-16q0 -73 -45 -145l-791 -1104v-23h856v-80q-164 -16 -356 -16h-647zM539 1526v162h141v-162h-141z" />
<glyph unicode="&#x17c;" horiz-adv-x="1062" d="M84 0v27q0 33 5.5 55.5t25.5 50.5l555 801q90 129 151 190v19h-680v86h807v-43q0 -50 -16 -76l-567 -815q-99 -138 -152 -191v-18h764v-86h-893zM465 1372v162h141v-162h-141z" />
<glyph unicode="&#x2c6;" horiz-adv-x="727" d="M84 1372l178 252h205l176 -252h-117l-161 180l-162 -180h-119z" />
<glyph unicode="&#x2da;" horiz-adv-x="763" d="M84 1597q0 72 11.5 107.5t49.5 73.5q47 47 88 62t148 15q108 0 147.5 -14.5t87.5 -62.5q38 -38 50 -74t12 -107q0 -68 -13 -105t-49 -73t-57.5 -49.5t-61.5 -21t-116 -7.5q-108 0 -147 14t-89 64q-35 35 -48 72t-13 106zM195 1597q0 -48 6 -76t25.5 -50t56.5 -30.5 t98 -8.5q81 0 122 18t53.5 50.5t12.5 96.5q0 48 -6 76.5t-25.5 51t-57 31.5t-99.5 9q-61 0 -98 -9t-56.5 -31.5t-25.5 -51t-6 -76.5z" />
<glyph unicode="&#x2dc;" horiz-adv-x="948" d="M84 1460q78 60 137 88.5t119 28.5q50 0 151.5 -40t139.5 -40q84 0 178 72l55 -68q-145 -117 -256 -117q-50 0 -152 40t-139 40q-85 0 -178 -71z" />
<glyph unicode="&#x2000;" horiz-adv-x="927" />
<glyph unicode="&#x2001;" horiz-adv-x="1855" />
<glyph unicode="&#x2002;" horiz-adv-x="927" />
<glyph unicode="&#x2003;" horiz-adv-x="1855" />
<glyph unicode="&#x2004;" horiz-adv-x="618" />
<glyph unicode="&#x2005;" horiz-adv-x="463" />
<glyph unicode="&#x2006;" horiz-adv-x="309" />
<glyph unicode="&#x2007;" horiz-adv-x="309" />
<glyph unicode="&#x2008;" horiz-adv-x="231" />
<glyph unicode="&#x2009;" horiz-adv-x="371" />
<glyph unicode="&#x200a;" horiz-adv-x="103" />
<glyph unicode="&#x2010;" horiz-adv-x="966" d="M154 565v99h659v-99h-659z" />
<glyph unicode="&#x2011;" horiz-adv-x="966" d="M154 565v99h659v-99h-659z" />
<glyph unicode="&#x2012;" horiz-adv-x="966" d="M154 565v99h659v-99h-659z" />
<glyph unicode="&#x2013;" horiz-adv-x="1226" d="M154 565v99h917v-99h-917z" />
<glyph unicode="&#x2014;" horiz-adv-x="1980" d="M154 565v99h1671v-99h-1671z" />
<glyph unicode="&#x2018;" horiz-adv-x="415" d="M133 1012v133q0 89 11 212t32 179h80q-29 -167 -29 -348q27 -5 40.5 -20t13.5 -50v-106h-148z" />
<glyph unicode="&#x2019;" horiz-adv-x="415" d="M135 1430v106h148v-133q0 -89 -11 -212t-32 -179h-80q28 161 28 348q-27 5 -40 20t-13 50z" />
<glyph unicode="&#x201a;" horiz-adv-x="415" d="M133 68v106h148v-133q0 -87 -11 -211t-30 -180h-80q28 161 28 348q-28 5 -41.5 20t-13.5 50z" />
<glyph unicode="&#x201c;" horiz-adv-x="763" d="M133 1012v133q0 89 11 212t32 179h80q-29 -167 -29 -348q27 -5 40.5 -20t13.5 -50v-106h-148zM481 1012v133q0 89 11 212t32 179h80q-29 -167 -29 -348q27 -5 40.5 -20t13.5 -50v-106h-148z" />
<glyph unicode="&#x201d;" horiz-adv-x="763" d="M133 1430v106h148v-133q0 -87 -11 -211t-30 -180h-80q28 161 28 348q-28 5 -41.5 20t-13.5 50zM481 1430v106h148v-133q0 -87 -11 -211t-30 -180h-80q29 167 29 348q-28 5 -42 20t-14 50z" />
<glyph unicode="&#x201e;" horiz-adv-x="763" d="M133 68v106h148v-133q0 -87 -11 -211t-30 -180h-80q28 161 28 348q-28 5 -41.5 20t-13.5 50zM481 68v106h148v-133q0 -87 -11 -211t-30 -180h-80q29 167 29 348q-28 5 -42 20t-14 50z" />
<glyph unicode="&#x2026;" horiz-adv-x="1273" d="M158 0v174h141v-174h-141zM565 0v174h142v-174h-142zM975 0v174h141v-174h-141z" />
<glyph unicode="&#x202f;" horiz-adv-x="371" />
<glyph unicode="&#x2039;" horiz-adv-x="880" d="M158 547v137l469 473l67 -49q-120 -155 -231 -272l-184 -199v-29l184 -200q120 -132 231 -273l-67 -63z" />
<glyph unicode="&#x203a;" horiz-adv-x="880" d="M186 123q96 122 234 270l182 199v29l-182 200q-140 154 -234 273l68 63l469 -475v-137l-469 -473z" />
<glyph unicode="&#x205f;" horiz-adv-x="463" />
<glyph unicode="&#x20ac;" d="M154 455v90h100v133q0 94 2 135h-102v90h108q22 226 98 328q63 86 148 130t235 44q271 0 502 -57l-22 -64q-281 31 -455 31q-64 0 -108 -5t-87.5 -20t-71 -43t-51 -74t-37 -112.5t-20.5 -157.5h522v-74q-164 -16 -356 -16h-170q-2 -37 -2 -119q0 -104 4 -149h524v-74 q-164 -16 -356 -16h-162q10 -85 27.5 -147.5t45.5 -104.5t60.5 -68.5t80.5 -40.5t96 -19t116 -5q197 0 398 30l22 -63q-176 -57 -432 -57q-173 0 -259.5 27.5t-166.5 103.5q-60 54 -88.5 134.5t-36.5 209.5h-106z" />
<glyph unicode="&#x2122;" horiz-adv-x="1523" d="M63 1303v81h533v-81h-225l3 -57q3 -56 3 -109v-406h-94v406q0 76 10 166h-230zM731 731v653h137q41 0 54.5 -7.5t23.5 -39.5l144 -446h10l143 446q10 31 24 39t54 8h137v-653h-92v572h-27l-165 -480h-166l-160 480h-27v-572h-90z" />
<glyph unicode="&#xe000;" horiz-adv-x="1228" d="M0 0v1229h1229v-1229h-1229z" />
</font>
</defs>
</svg>
