<?xml version="1.0" standalone="no"?>
<!DOCTYPE svg PUBLIC "-//W3C//DTD SVG 1.1//EN" "http://www.w3.org/Graphics/SVG/1.1/DTD/svg11.dtd" >
<svg xmlns="http://www.w3.org/2000/svg">
<metadata></metadata>
<defs>
<font id="tecna_heavyregular" horiz-adv-x="1280" >
<font-face units-per-em="2048" ascent="1638" descent="-410" />
<missing-glyph horiz-adv-x="577" />
<glyph horiz-adv-x="2048" />
<glyph horiz-adv-x="2048" />
<glyph unicode="&#xd;" horiz-adv-x="2048" />
<glyph unicode=" "  horiz-adv-x="577" />
<glyph unicode="&#x09;" horiz-adv-x="577" />
<glyph unicode="&#xa0;" horiz-adv-x="577" />
<glyph unicode="!" horiz-adv-x="571" d="M102 0v287h344v-287h-344zM117 375v1069h352v-318q0 -417 -57 -751h-295z" />
<glyph unicode="&#x22;" horiz-adv-x="847" d="M57 1307v229h314v-229q0 -168 -45 -357h-224q-45 189 -45 357zM477 1307v229h314v-229q0 -164 -46 -357h-223q-45 189 -45 357z" />
<glyph unicode="#" d="M37 301v277h194l48 288h-154v277h199l49 301h309l-49 -301h149l49 301h310l-49 -301h159v-260q-105 -15 -204 -17l-48 -288h164v-261q-95 -13 -209 -16l-49 -301h-309l49 301h-149l-50 -301h-309l49 301h-149zM541 578h149l47 288h-149z" />
<glyph unicode="$" d="M139 127l58 293q186 -31 374 -31q126 0 170.5 15t44.5 51q0 34 -25 54.5t-95 45.5l-250 86q-58 21 -99 53t-88 82q-37 40 -56 97t-19 108q0 55 8 96t28 74.5t37 53.5t52 55q86 86 231 112v174h285v-174q172 -16 299 -59l-60 -289q-178 31 -375 31q-77 0 -109 -13t-32 -61 q0 -35 28.5 -59t104.5 -52l226 -84q121 -46 200 -147q43 -51 58.5 -83.5t15.5 -88.5q0 -86 -42 -151t-114 -128q-79 -70 -200 -102v-188h-285v165q-202 9 -371 64z" />
<glyph unicode="%" horiz-adv-x="1644" d="M55 1085q0 123 12 180t56 111q50 59 95 73.5t155 14.5q108 0 153 -14.5t95 -73.5q43 -54 55 -110t12 -176q0 -124 -11.5 -180.5t-55.5 -110.5q-50 -59 -95 -73.5t-153 -14.5q-110 0 -155 14.5t-95 73.5q-44 54 -56 110.5t-12 175.5zM272 0l815 1444h281l-813 -1444h-283z M293 1087q0 -116 14 -151t66 -35q51 0 64.5 34.5t13.5 151.5q0 121 -12 154t-66 33q-56 0 -68 -33t-12 -154zM956 360q0 123 12 180t56 111q50 59 94.5 73.5t153.5 14.5t153.5 -14.5t94.5 -73.5q43 -54 55 -110t12 -176q0 -124 -11.5 -180.5t-55.5 -110.5 q-50 -59 -94.5 -73.5t-153.5 -14.5t-153.5 14.5t-94.5 73.5q-44 54 -56 110.5t-12 175.5zM1194 362q0 -117 13.5 -151.5t64.5 -34.5t64.5 34.5t13.5 151.5q0 121 -12 154t-66 33t-66 -33t-12 -154z" />
<glyph unicode="&#x26;" horiz-adv-x="1435" d="M76 389q0 123 31.5 185.5t101.5 121.5q71 59 115 74q-119 158 -119 309q0 52 2 76.5t12.5 59t33.5 65.5t64 72q71 72 139 92t228 20q159 0 221 -18.5t135 -89.5q58 -57 77.5 -119.5t19.5 -192.5h-248q0 58 -15 85t-55.5 38t-128.5 11q-56 0 -92 -7t-52.5 -22.5t-22 -32 t-5.5 -41.5q0 -47 51 -112l371 -451q0 5 1 14.5t1 14.5v106q0 41 14.5 65.5t51.5 61.5q35 35 58.5 47.5t66.5 12.5h225v-281h-209v-135q0 -46 -6 -90q27 -11 63.5 -16t65 -6t86.5 -1v-305q-209 0 -352 80q-129 -100 -365 -100q-204 0 -301.5 25t-157.5 85q-66 66 -86 123 t-20 176zM432 449q0 -66 12 -106.5t41 -60.5t62.5 -26t91.5 -6q95 0 152 14l-320 342q-39 -36 -39 -157z" />
<glyph unicode="'" horiz-adv-x="428" d="M57 1307v229h314v-229q0 -168 -45 -357h-224q-45 189 -45 357z" />
<glyph unicode="(" horiz-adv-x="555" d="M61 700q0 163 9.5 284.5t31 208.5t37 130.5t45.5 110.5t113 163l203 -133q-53 -143 -72.5 -289.5t-19.5 -474.5q0 -326 19.5 -472t72.5 -289l-203 -134q-4 6 -22.5 28.5t-26.5 33.5t-22 30.5t-24 37t-18 34.5q-30 68 -45.5 110.5t-37 129t-31 207.5t-9.5 284z" />
<glyph unicode=")" horiz-adv-x="571" d="M72 -61q55 143 74.5 288.5t19.5 472.5q0 329 -19.5 475t-74.5 289l202 133q83 -96 113 -163t45.5 -110.5t37 -130.5t31 -208.5t9.5 -284.5t-9.5 -284t-31 -207.5t-37 -129t-45.5 -110.5q-8 -17 -18 -34.5t-24 -37t-22 -30.5t-26.5 -33.5t-22.5 -28.5z" />
<glyph unicode="*" horiz-adv-x="956" d="M72 1059l78 237l86 -28q98 -29 143 -74q-27 52 -27 166v84h252v-84q0 -115 -29 -166q45 45 144 74l88 28l78 -237l-86 -29q-76 -24 -162 -24q51 -25 119 -119l51 -68l-205 -147l-49 67q-68 94 -76 148q-7 -48 -76 -148l-49 -67l-202 147l51 68q69 96 116 119 q-78 0 -159 24z" />
<glyph unicode="+" d="M182 485v258h299v340h318v-340h301v-241q-138 -15 -301 -17v-340h-318v340h-299z" />
<glyph unicode="," horiz-adv-x="501" d="M57 86v285h385v-330q0 -97 -36 -212t-84 -179h-259q70 198 70 350q-44 5 -60 21t-16 65z" />
<glyph unicode="-" horiz-adv-x="907" d="M76 465v299h755v-299h-755z" />
<glyph unicode="." horiz-adv-x="495" d="M57 0v371h379v-371h-379z" />
<glyph unicode="/" horiz-adv-x="768" d="M-37 -113l539 1608h307l-539 -1608h-307z" />
<glyph unicode="0" d="M72 717q0 105 1.5 162t8 128t19.5 115t36.5 92t59.5 91q32 38 63 65t66.5 44.5t66 27.5t75.5 15t79.5 6t93.5 1q86 0 137.5 -4t110 -19t105 -47t91.5 -85q36 -43 59.5 -90.5t36.5 -91t19.5 -114t8 -127t1.5 -161.5t-1.5 -161.5t-8 -127.5t-19.5 -115t-36.5 -91.5 t-59.5 -90.5q-32 -38 -63 -65t-66.5 -44.5t-66 -27.5t-75.5 -15t-79.5 -6t-93.5 -1q-86 0 -137.5 4t-110 19t-105 47t-91.5 85q-36 43 -59.5 90t-37 91t-19.5 113.5t-7.5 126t-1.5 161.5zM434 719q0 -191 11 -272t36 -111q30 -35 61.5 -49.5t98.5 -14.5q68 0 99.5 14.5 t60.5 49.5q24 29 35.5 110.5t11.5 270.5q0 204 -9.5 282t-39.5 113q-28 34 -60.5 46.5t-97.5 12.5q-66 0 -98 -11.5t-60 -45.5q-30 -36 -39.5 -113.5t-9.5 -281.5z" />
<glyph unicode="1" d="M158 0v285h319v790l-258 -117v328l328 158h287v-1159h288v-269q-164 -16 -356 -16h-608z" />
<glyph unicode="2" d="M98 0v285q0 73 13.5 121.5t44.5 113.5q27 57 85 119.5t126 97.5l274 140q77 39 105 72.5t28 90.5q0 26 -10.5 44.5t-26 28.5t-44 15.5t-54 7t-66.5 1.5q-188 0 -378 -31l-60 289q217 69 471 69q141 0 242 -28t170 -95q40 -38 55.5 -55t36.5 -53.5t28 -83.5t7 -117 q0 -57 -9.5 -98t-19.5 -60t-35 -57q-42 -64 -71 -93t-88 -62l-344 -195q-55 -31 -83 -65.5t-28 -84.5v-32h670v-269q-164 -16 -357 -16h-682z" />
<glyph unicode="3" d="M115 39l43 264q213 -31 368 -31q149 0 209 41.5t60 149.5q0 76 -33.5 112.5t-134.5 36.5q-117 0 -209 15v272h239q55 0 79 29t24 108q0 84 -40 109.5t-142 25.5q-156 0 -420 -30l-43 264q233 59 487 59q140 0 217.5 -11.5t123 -36.5t93.5 -77q51 -55 68.5 -105.5 t17.5 -131.5q0 -197 -145 -309q-14 -12 -37 -27q45 -16 117 -74q56 -45 79 -98.5t23 -132.5q0 -122 -23.5 -196t-91.5 -138q-86 -81 -190 -114t-309 -33q-250 0 -430 59z" />
<glyph unicode="4" d="M47 305v273l385 776q30 58 68 74t110 16h492v-844h131v-281q-59 -9 -131 -12v-307h-357v305h-698zM426 600h319v563h-47z" />
<glyph unicode="5" d="M137 39l62 264q199 -31 389 -31q127 0 175 37t48 148q0 88 -25 118.5t-98 30.5h-346q-80 0 -124 48t-44 134v656h932v-279q-164 -16 -356 -16h-220v-221q0 -35 35 -35h183q94 0 163.5 -26.5t155.5 -102.5q62 -54 85.5 -113t23.5 -139q0 -131 -24.5 -227t-90.5 -158 q-85 -80 -187.5 -113.5t-289.5 -33.5q-267 0 -447 59z" />
<glyph unicode="6" d="M78 727q0 118 3 181.5t15 141.5t39.5 135t73.5 111q41 47 88 79t89.5 49.5t103 26.5t107 11t122.5 2q225 0 405 -59l-61 -264q-227 30 -344 30q-178 0 -221 -67q-49 -77 -56 -250q100 104 263 104q106 0 178.5 -20.5t114 -52t92.5 -90.5q70 -81 94 -152t24 -186 q0 -118 -26 -195t-105 -156q-83 -83 -171 -104.5t-279 -21.5q-72 0 -110.5 1.5t-89 9t-84 23t-72 44t-74.5 71.5q-34 40 -56.5 84.5t-35 87t-18.5 114.5t-7.5 133.5t-1.5 178.5zM440 608q2 -86 8.5 -140.5t19.5 -95.5t37.5 -61.5t58.5 -29.5t87 -9q129 0 177.5 47t48.5 164 q0 45 -3 74t-14.5 50t-23.5 32t-40.5 17t-54.5 7t-75 1q-161 0 -226 -56z" />
<glyph unicode="7" d="M166 1149v295h991v-266q0 -78 -41 -179l-424 -999h-379l424 1010q35 79 35 118v21h-606z" />
<glyph unicode="8" d="M78 401q0 105 19.5 167t70.5 112q69 66 213 86q-117 25 -164 74q-49 49 -65.5 98.5t-16.5 134.5q0 103 17 158t79 117q71 71 157.5 93.5t254.5 22.5t254.5 -22.5t157.5 -93.5q62 -62 79 -117t17 -158q0 -85 -16.5 -134.5t-65.5 -98.5t-164 -74q141 -19 213 -86 q51 -50 70.5 -112t19.5 -167q0 -126 -24.5 -190t-100.5 -129q-64 -56 -192.5 -79t-247.5 -23t-247.5 23t-192.5 79q-76 65 -100.5 129t-24.5 190zM438 451q0 -107 43.5 -147t161.5 -40t161.5 40t43.5 147q0 93 -32.5 133.5t-121.5 40.5h-102q-90 0 -122 -40t-32 -134z M492 1034q0 -73 32 -107t119 -34t119.5 34t32.5 107q0 80 -28.5 113t-123.5 33t-123 -33t-28 -113z" />
<glyph unicode="9" d="M90 977q0 119 29.5 195.5t99.5 148.5q82 85 171.5 114t262.5 29q90 0 138.5 -3.5t100 -19t90.5 -45.5t85 -83q35 -40 57.5 -85.5t35.5 -88t19 -111.5t7.5 -125.5t1.5 -161.5q0 -108 -1 -162t-7.5 -128t-20 -118t-38 -93.5t-62.5 -92.5q-41 -48 -82 -79t-77 -49 t-87.5 -26.5t-93.5 -10.5t-117 -2q-248 0 -428 59l62 264q242 -31 409 -31q53 0 81 16t56 58q22 33 31 79.5t12 164.5q-89 -86 -241 -86q-105 0 -179.5 21t-117.5 53t-90 88q-65 74 -86 132t-21 179zM455 987q0 -65 7 -101.5t28.5 -57t50 -26t82.5 -5.5q135 0 204 20 q-3 157 -19.5 229.5t-53.5 98.5t-117 26q-113 0 -147.5 -36.5t-34.5 -147.5z" />
<glyph unicode=":" horiz-adv-x="495" d="M57 0v371h379v-371h-379zM57 1028v371h379v-371h-379z" />
<glyph unicode=";" horiz-adv-x="512" d="M57 1028v371h379v-371h-379zM68 86v285h385v-330q0 -96 -36.5 -211.5t-84.5 -179.5h-258q26 75 47.5 172.5t21.5 177.5q-44 5 -59.5 21t-15.5 65z" />
<glyph unicode="&#x3c;" d="M188 510v250l789 393l113 -235l-510 -256v-54l510 -256l-113 -235z" />
<glyph unicode="=" d="M182 281v264h918v-264h-918zM182 752v264h918v-264h-918z" />
<glyph unicode="&#x3e;" d="M193 352l509 256v54l-509 256l112 235l789 -393v-250l-789 -393z" />
<glyph unicode="?" horiz-adv-x="1040" d="M45 1395q207 69 436 69q140 0 228.5 -25.5t164.5 -88.5q71 -59 106.5 -119.5t35.5 -153.5q0 -77 -26.5 -138t-65.5 -101.5t-107 -89.5l-172 -125q-41 -30 -57.5 -63.5t-16.5 -82.5v-102h-307v121q0 121 53 204q22 33 33 49t35 40.5t55 46.5l99 71q64 45 86 75t22 71 q0 49 -43.5 66.5t-146.5 17.5q-173 0 -351 -31zM250 0v287h344v-287h-344z" />
<glyph unicode="@" horiz-adv-x="2076" d="M63 575q0 318 52.5 514.5t185.5 325.5q116 112 287.5 157.5t449.5 45.5q268 0 443.5 -37.5t292.5 -136.5q60 -51 102.5 -115.5t69 -137.5t41.5 -172t20.5 -201.5t5.5 -242.5q0 -195 -23 -296.5t-94 -172.5q-62 -62 -137 -84t-207 -22q-101 0 -147 16t-86 56 q-30 30 -39 48t-18 68q-20 -33 -91 -104q-66 -65 -135 -84.5t-188 -19.5q-103 0 -157 15t-101 64q-51 51 -71.5 108.5t-20.5 186.5q0 103 20.5 162t77.5 115q75 75 139.5 96t225.5 21h276v79q0 72 -42 96.5t-159 24.5q-162 0 -418 -51l-63 252q40 17 115.5 39.5t130.5 32.5 q143 28 254 28q119 0 208.5 -28t166.5 -105q68 -67 96.5 -108t42.5 -104t14 -175v-405q0 -24 8 -33.5t29 -9.5q51 0 73 18.5t32 81.5t10 207q0 152 -2 239.5t-14.5 181t-28 138t-56 92t-83 64t-125 32.5t-167 18.5t-221.5 2.5q-100 0 -174.5 -3t-142 -13.5t-115 -23.5 t-88.5 -40t-67 -55.5t-47 -77t-32 -97.5t-18.5 -124.5t-9.5 -150.5t-2 -183q0 -141 3 -235t19 -177t31.5 -130.5t59 -87.5t81 -57t119 -28.5t151.5 -13.5t198 -2q221 0 491 37l55 -230q-137 -34 -287.5 -53t-250.5 -19q-159 0 -281 11.5t-245 50t-199 104.5 q-72 62 -117 138.5t-68 182t-31 217t-8 279.5zM825 397q0 -79 29.5 -105t120.5 -26q124 0 190.5 71t71.5 204q-111 -9 -231 -9q-107 0 -144 -27t-37 -108z" />
<glyph unicode="A" horiz-adv-x="1427" d="M-6 0l434 1444h285q77 0 122.5 -15t100.5 -63q53 -44 70 -62.5t32.5 -48t34.5 -92.5l361 -1163h-375l-82 291h-547l-82 -291h-354zM512 588h381l-164 579h-49z" />
<glyph unicode="B" horiz-adv-x="1394" d="M119 0v1444h762q147 0 202 -15t117 -77q55 -55 70.5 -117t15.5 -170q0 -84 -16 -129.5t-66 -95.5q-61 -61 -90 -74q51 -16 123 -86q51 -49 70.5 -118t19.5 -177q0 -126 -21.5 -183t-95.5 -124q-55 -49 -118 -63.5t-213 -14.5h-760zM475 285h385q64 0 85.5 28t21.5 125 q0 86 -20 117t-79 31h-393v-301zM475 881h356q55 0 77 34.5t22 110.5q0 74 -24 98.5t-93 24.5h-338v-268z" />
<glyph unicode="C" horiz-adv-x="1290" d="M84 727q0 228 34.5 348t139.5 225q55 55 114 89t131 49.5t137 20.5t165 5q96 0 216.5 -22t223.5 -56l-61 -280q-213 31 -355 31q-118 0 -187.5 -15t-116 -60t-63 -119.5t-16.5 -199.5q0 -92 6.5 -156t23 -115t42 -81t68.5 -49.5t96.5 -27t130.5 -7.5q156 0 389 33 l53 -289q-92 -31 -232 -51t-275 -20q-72 0 -123 4t-119 19t-130 49.5t-118 88.5q-106 104 -140 226t-34 360z" />
<glyph unicode="D" horiz-adv-x="1443" d="M119 0v1446h571q75 0 110.5 -1t92.5 -5t89.5 -13.5t75.5 -26t79.5 -43.5t74.5 -65q52 -52 80.5 -97.5t44 -114.5t19.5 -143t4 -210q0 -115 -2 -173t-9 -124.5t-23.5 -106t-44 -81.5t-71.5 -86q-43 -43 -88.5 -72t-88.5 -45.5t-102 -25t-110 -11t-131 -2.5h-571zM475 291 h215q65 0 110.5 8t81 29t57 52.5t35 83.5t18.5 115.5t5 155.5q0 89 -4 147.5t-16.5 108.5t-33 78t-56 48t-82.5 27t-115 7h-215v-860z" />
<glyph unicode="E" horiz-adv-x="1243" d="M119 313v1131h1044v-295h-688v-266h590v-271q-164 -16 -356 -16h-234v-195q0 -70 22.5 -93t84.5 -23h581v-269q-164 -16 -356 -16h-391q-80 0 -115 16.5t-92 73.5q-52 52 -71 93.5t-19 129.5z" />
<glyph unicode="F" horiz-adv-x="1150" d="M119 0v1444h1001v-295h-645v-318h533v-270q-164 -16 -357 -16h-176v-545h-356z" />
<glyph unicode="G" horiz-adv-x="1388" d="M84 727q0 228 34.5 348t139.5 225q55 55 111 88.5t126 50t134.5 21t167.5 4.5q242 0 432 -75l-62 -279q-216 27 -338 27q-118 0 -187.5 -15t-116 -60t-63 -119.5t-16.5 -199.5q0 -137 14 -219t53 -132t98.5 -67.5t158.5 -17.5q127 0 227 21v204h-209v279h539v-440 q0 -99 -15 -145t-81 -107q-65 -62 -199 -100.5t-301 -38.5q-72 0 -121 4t-113.5 19t-123.5 49.5t-115 88.5q-106 104 -140 226t-34 360z" />
<glyph unicode="H" horiz-adv-x="1509" d="M119 0v1444h356v-545h559v545h355v-1444h-355v588h-559v-588h-356z" />
<glyph unicode="I" horiz-adv-x="593" d="M119 0v1444h356v-1444h-356z" />
<glyph unicode="J" horiz-adv-x="1019" d="M10 49l45 289q170 -29 289 -29q64 0 99.5 7.5t64 33.5t39 76t10.5 135v883h354v-985q0 -70 -7 -116.5t-27.5 -86.5t-44 -68t-70.5 -75q-129 -133 -336 -133q-111 0 -225 21t-191 48z" />
<glyph unicode="K" horiz-adv-x="1392" d="M119 0v1444h356v-572h152q65 0 94 12t45 58l170 502h395l-233 -572q-34 -77 -76 -122l377 -750h-428l-244 580q-12 -2 -39 -2h-213v-578h-356z" />
<glyph unicode="L" horiz-adv-x="1169" d="M119 313v1131h356v-1043q0 -70 22.5 -93t84.5 -23h538v-269q-164 -16 -356 -16h-348q-80 0 -115 16.5t-92 73.5q-52 52 -71 93.5t-19 129.5z" />
<glyph unicode="M" horiz-adv-x="1839" d="M119 0v1444h319q54 0 86.5 -13t87.5 -53q58 -44 81.5 -72.5t47.5 -88.5l177 -453h24l176 453q24 60 47.5 88.5t81.5 72.5q55 40 87.5 53t86.5 13h297v-1444h-348v995h-20l-277 -686h-311l-275 686h-20v-995h-348z" />
<glyph unicode="N" horiz-adv-x="1542" d="M119 0v1444h250q57 0 95 -17t89 -55q67 -51 89 -76.5t56 -91.5l363 -694h20v934h340v-1444h-252q-18 0 -32.5 1t-29 6t-22 7t-23 12t-19.5 12.5t-23 16.5t-23 17q-52 39 -76 65.5t-55 83.5l-385 713h-20v-934h-342z" />
<glyph unicode="O" horiz-adv-x="1492" d="M84 717q0 103 2 160t10 123.5t24 109t44.5 88t71.5 88.5q108 107 211.5 141.5t297.5 34.5q86 0 138.5 -2.5t108.5 -11t96 -26t81.5 -46.5t85.5 -73q54 -54 85 -106.5t46 -127t19 -143.5t4 -195q0 -84 -1.5 -136.5t-6.5 -114t-15 -102.5t-27 -85.5t-42.5 -81t-61.5 -72.5 q-54 -54 -103 -86t-112.5 -48t-125.5 -20.5t-169 -4.5q-106 0 -168 4.5t-125.5 20.5t-112.5 48t-103 86q-43 43 -71.5 89.5t-44.5 90.5t-24 112t-10 125.5t-2 160.5zM446 725q0 -59 0.5 -93.5t2.5 -78.5t6.5 -68.5t12 -55t18.5 -46.5t28 -34.5t38 -27t50 -17t64 -11t79 -2.5 t79.5 3t64.5 12t50.5 18.5t38.5 28.5t28 35.5t19 47t12 55.5t6.5 68t3 76.5t0.5 89.5q0 59 -0.5 94t-3 78.5t-6.5 67.5t-12 54.5t-19 45.5t-28 33t-38.5 26t-50.5 16t-64 10.5t-80 2.5q-63 0 -108.5 -8t-78 -19.5t-53.5 -40.5t-33 -55t-17.5 -80.5t-7 -98.5t-1.5 -126z" />
<glyph unicode="P" horiz-adv-x="1343" d="M119 0v1444h694q149 0 224 -22t145 -95q56 -58 76 -142.5t20 -240.5q0 -171 -23 -260.5t-77 -140.5q-74 -69 -146.5 -93t-222.5 -24h-334v-426h-356zM475 721h264q79 0 115.5 17t52 64t15.5 146q0 118 -31.5 159.5t-132.5 41.5h-283v-428z" />
<glyph unicode="Q" horiz-adv-x="1492" d="M84 717q0 103 2 160t10 123.5t24 109t44.5 88t71.5 88.5q108 107 211.5 141.5t297.5 34.5q86 0 138.5 -2.5t108.5 -11t96 -26t81.5 -46.5t85.5 -73q54 -54 85 -106.5t46 -127t19 -143.5t4 -195q0 -84 -1.5 -136.5t-6.5 -114t-15 -102.5t-27 -85.5t-42.5 -81t-61.5 -72.5 q-55 -55 -94 -80l185 -258h-375l-103 181q-37 -2 -123 -2q-106 0 -168 4.5t-125.5 20.5t-112.5 48t-103 86q-43 43 -71.5 89.5t-44.5 90.5t-24 112t-10 125.5t-2 160.5zM446 725q0 -59 0.5 -93.5t2.5 -78.5t6.5 -68.5t12 -55t18.5 -46.5t28 -34.5t38 -27t50 -17t64 -11 t79 -2.5t79.5 3t64.5 12t50.5 18.5t38.5 28.5t28 35.5t19 47t12 55.5t6.5 68t3 76.5t0.5 89.5q0 59 -0.5 94t-3 78.5t-6.5 67.5t-12 54.5t-19 45.5t-28 33t-38.5 26t-50.5 16t-64 10.5t-80 2.5q-63 0 -108.5 -8t-78 -19.5t-53.5 -40.5t-33 -55t-17.5 -80.5t-7 -98.5 t-1.5 -126z" />
<glyph unicode="R" horiz-adv-x="1380" d="M119 0v1444h719q148 0 221.5 -22t144.5 -95q58 -60 78.5 -134t20.5 -224q0 -166 -23 -246.5t-78 -132.5q-58 -55 -112 -80l243 -510h-391l-184 473h-283v-473h-356zM475 770h289q41 0 65 2t47 9t34.5 19.5t20.5 36t12 55t3 79.5q0 113 -30 145.5t-134 32.5h-307v-379z " />
<glyph unicode="S" horiz-adv-x="1230" d="M72 47l59 291q65 -11 211.5 -21t235.5 -10q131 0 183 23.5t52 79.5q0 41 -23.5 69.5t-89.5 50.5l-315 103q-90 28 -133.5 61t-93.5 103q-68 93 -68 247q0 102 26 155.5t103 129.5q79 76 172.5 105.5t206.5 29.5q122 0 270 -19t242 -50l-61 -289q-70 12 -203 21.5 t-240 9.5q-48 0 -81 -6t-58 -27.5t-25 -59.5q0 -39 25 -65t98 -51l301 -97q94 -29 145 -69t91 -105q39 -63 51 -117t12 -130q0 -109 -31 -179t-124 -141q-87 -68 -185.5 -89t-238.5 -21q-121 0 -271 18t-243 49z" />
<glyph unicode="T" horiz-adv-x="1245" d="M47 1159v285h1151v-285h-410q13 -214 13 -395v-764h-357v764q0 181 13 395h-410z" />
<glyph unicode="U" horiz-adv-x="1409" d="M106 399v1045h357v-959q0 -63 13.5 -101.5t46.5 -58.5t73.5 -26t108.5 -6t108.5 6t73 26t46 58.5t13.5 101.5v959h354v-1045q0 -137 -17.5 -187.5t-94.5 -127.5q-70 -70 -156.5 -87t-326.5 -17q-241 0 -328.5 17t-157.5 87q-77 77 -95 128t-18 187z" />
<glyph unicode="V" horiz-adv-x="1413" d="M-6 1444h401l297 -1116h41l297 1116h389l-350 -1172q-24 -78 -44.5 -107t-90.5 -89q-54 -46 -99 -61t-118 -15h-299z" />
<glyph unicode="W" horiz-adv-x="2070" d="M2 1444h381l149 -1065h41l220 1063h479l229 -1063h45l133 1065h389l-204 -1235q-6 -35 -22.5 -65t-29.5 -43t-40 -38q-28 -22 -45.5 -33t-46.5 -20.5t-62 -9.5h-369l-200 993h-27l-152 -784q-7 -36 -23 -65.5t-30 -43.5t-41 -37q-28 -22 -45 -33t-46 -20.5t-62 -9.5h-365 z" />
<glyph unicode="X" horiz-adv-x="1345" d="M2 0l252 561q28 64 48 92.5t67 59.5l39 26l-21 15q-18 13 -32 25t-22.5 20.5t-18 24t-13.5 23t-15 30t-16 32.5l-260 535h414l240 -535h57l194 535h400l-223 -535q-27 -63 -49 -93t-68 -62l-37 -25l27 -16q22 -14 37 -25.5t27 -28.5t16 -24.5t16.5 -35.5t17.5 -38 l264 -561h-415l-246 545h-57l-228 -545h-395z" />
<glyph unicode="Y" horiz-adv-x="1310" d="M-18 1444h413l219 -610h101l205 610h409l-321 -772q-20 -51 -40 -76t-63 -51l-61 -37v-508h-357v504l-67 41q-42 26 -61.5 50.5t-41.5 76.5z" />
<glyph unicode="Z" horiz-adv-x="1204" d="M59 0v219q0 85 58 158l606 749v23h-631v295h1049v-213q0 -90 -45 -146l-613 -768v-22h678v-279q-164 -16 -356 -16h-746z" />
<glyph unicode="[" horiz-adv-x="653" d="M117 -184v1720h499v-227l-182 -9v-1249l182 -10v-225h-499z" />
<glyph unicode="\" horiz-adv-x="768" d="M-37 1495h307l539 -1608h-307z" />
<glyph unicode="]" horiz-adv-x="653" d="M37 41l182 10v1249l-182 11v225h500v-1720h-500v225z" />
<glyph unicode="^" d="M115 715l385 514h282l383 -512l-200 -142l-316 383h-20l-314 -383z" />
<glyph unicode="_" horiz-adv-x="917" d="M0 -78h918v-297h-918v297z" />
<glyph unicode="`" horiz-adv-x="671" d="M66 1624h393l147 -293h-317z" />
<glyph unicode="a" horiz-adv-x="1257" d="M57 354q0 103 20.5 163.5t76.5 115.5q75 75 139.5 95t226.5 20h277v79q0 72 -42 96.5t-159 24.5q-162 0 -418 -51l-63 252q105 45 245 72q143 28 254 28q119 0 208.5 -28t166.5 -105q68 -68 96 -108t43 -104t15 -175v-729h-281q-21 51 -43 186q-27 -42 -90 -102 q-65 -65 -133.5 -84.5t-187.5 -19.5q-104 0 -158 15t-103 64t-69.5 107.5t-20.5 187.5zM385 397q0 -79 29.5 -105t120.5 -26q124 0 190.5 71t71.5 204q-111 -9 -232 -9q-107 0 -143.5 -27t-36.5 -108z" />
<glyph unicode="b" horiz-adv-x="1386" d="M117 0v1559h336q18 -157 18 -490q59 103 137.5 141.5t208.5 38.5q111 0 188 -23t156 -102q97 -95 121.5 -180.5t24.5 -308.5q0 -127 -9 -210.5t-31.5 -143.5t-51 -97t-78.5 -82q-63 -58 -122.5 -85t-107 -32t-143.5 -5q-118 0 -192 43t-117 137q-11 -68 -43 -160h-295z M471 541q0 -149 55 -203.5t179 -54.5q73 0 113.5 11.5t68.5 50t37.5 105.5t9.5 183q0 104 -8 161.5t-34.5 93t-66 46t-110.5 10.5q-137 0 -190.5 -57t-53.5 -191v-155z" />
<glyph unicode="c" horiz-adv-x="1130" d="M80 621q0 205 28.5 300.5t129.5 186.5q98 91 176 116t233 25q135 0 258 -22q63 -10 152 -39l-47 -248q-209 18 -359 18q-70 0 -112 -16t-65 -59.5t-30.5 -103.5t-7.5 -165q0 -76 3.5 -127.5t14.5 -92t26.5 -63.5t42.5 -38t60.5 -20t82.5 -5q132 0 362 25l53 -250 q-96 -34 -166 -45q-117 -18 -264 -18q-156 0 -238 27t-169 114q-102 100 -133 199.5t-31 300.5z" />
<glyph unicode="d" horiz-adv-x="1386" d="M80 629q0 217 25 303t122 184q82 83 161.5 108t193.5 25q122 0 198 -35t135 -131q0 135 6.5 278t14.5 198h336v-1559h-291q-30 70 -45 160q-46 -94 -120 -137t-191 -43q-74 0 -111 2.5t-84.5 14t-87.5 36.5t-88 69q-50 45 -79 82t-52.5 96t-33 142t-9.5 207zM453 629 q0 -113 10 -179t38.5 -104.5t69 -50.5t111.5 -12q120 0 176.5 55t56.5 203v164q0 127 -53 183t-180 56q-97 0 -143.5 -24.5t-66 -89.5t-19.5 -201z" />
<glyph unicode="e" horiz-adv-x="1214" d="M80 621q0 205 28.5 300.5t129.5 186.5q99 91 178 116t239 25q141 0 231.5 -28t155.5 -105q71 -83 87 -130.5t16 -145.5q0 -70 -17 -122.5t-61 -99.5q-58 -62 -106 -84t-123 -22h-199q-63 0 -203 8q2 -55 7 -92t17.5 -67t30 -46.5t47.5 -27.5t66.5 -15t91.5 -4 q46 0 103.5 3.5t93.5 7t99 10t79 8.5l51 -254q-75 -30 -182 -47q-107 -16 -274 -16q-160 0 -248 27.5t-174 113.5q-104 102 -134 195t-30 305zM438 717h226q67 0 98.5 10.5t41 32t9.5 67.5q0 75 -35.5 104.5t-130.5 29.5q-119 0 -161 -49t-48 -195z" />
<glyph unicode="f" horiz-adv-x="780" d="M39 971v248l127 8v10q0 61 25 134t85 136q69 70 128.5 92.5t144.5 22.5q84 0 168 -15t139 -38l-45 -228q-85 11 -139 11q-92 0 -122 -21t-30 -84v-18h258v-258h-258v-971h-354v971h-127z" />
<glyph unicode="g" horiz-adv-x="1269" d="M82 811q0 130 25.5 193.5t103.5 134.5t171.5 90.5t250.5 19.5q104 0 151 -4l56 148h342l-154 -232l27 -22q77 -71 102 -134.5t25 -193.5q0 -131 -25 -195t-102 -135q-78 -71 -171.5 -90.5t-250.5 -19.5q-119 0 -170 6q-10 -20 -10 -47q0 -64 129 -64h307q85 0 137.5 -16 t108.5 -70q54 -52 69 -98.5t15 -130.5q0 -82 -17.5 -131t-77.5 -109q-62 -62 -129.5 -81t-181.5 -19h-358q-208 0 -365 74l43 233q214 -24 346 -24h234q88 0 118.5 12t30.5 49q0 40 -28.5 50.5t-120.5 10.5h-254q-67 0 -113 24t-92 73q-37 40 -49 69.5t-12 87.5t12 88.5 t53 73.5l6 6q-30 20 -53 43q-79 71 -104 135t-25 195zM432 811q0 -114 40.5 -158.5t160.5 -44.5q122 0 162.5 44.5t40.5 158.5q0 109 -43 148.5t-160 39.5q-116 0 -158.5 -39.5t-42.5 -148.5z" />
<glyph unicode="h" horiz-adv-x="1335" d="M117 0v1559h334q7 -45 14 -214.5t6 -316.5q6 10 53 74q71 91 135.5 119t182.5 28q129 0 189 -18t124 -82q65 -66 81.5 -120.5t16.5 -149.5v-879h-354v739q0 111 -38 146t-154 35q-136 0 -186 -52.5t-50 -177.5v-690h-354z" />
<glyph unicode="i" horiz-adv-x="579" d="M104 1315v244h371v-244h-371zM113 0v1229h354v-1229h-354z" />
<glyph unicode="j" horiz-adv-x="628" d="M-57 -12q70 0 112 8t63.5 29t27.5 47.5t6 74.5v1082h354v-1028q0 -129 -26 -200t-118 -165q-50 -51 -92 -80t-95 -43t-98.5 -17t-133.5 -3v295zM145 1315v244h371v-244h-371z" />
<glyph unicode="k" horiz-adv-x="1263" d="M119 0v1536h344q6 -49 13 -222t7 -313v-221h78q49 0 77.5 20.5t53.5 73.5l162 355h397l-192 -385q-51 -102 -113 -164l361 -680h-404l-250 498q-46 -11 -78 -11h-92v-487h-364z" />
<glyph unicode="l" horiz-adv-x="712" d="M106 348v1211h336q6 -49 14 -223.5t7 -311.5v-655q0 -34 24 -61t56 -27h145v-250q-140 -31 -289 -31q-63 0 -109.5 20.5t-94.5 67.5q-53 51 -71 103t-18 157z" />
<glyph unicode="m" horiz-adv-x="2070" d="M117 0v1229h325q17 -84 25 -207q27 42 57 80q68 88 135 117.5t177 29.5q112 0 162.5 -17.5t113.5 -82.5q71 -73 88 -139q29 47 66 92q68 88 135 117.5t178 29.5q109 0 160.5 -18t115.5 -82q65 -67 83 -122t18 -148v-879h-354v739q0 112 -31.5 146.5t-132.5 34.5 q-135 0 -180.5 -56.5t-45.5 -199.5v-664h-354v739q0 112 -31.5 146.5t-132.5 34.5q-128 0 -175.5 -52t-47.5 -178v-690h-354z" />
<glyph unicode="n" horiz-adv-x="1368" d="M117 0v1229h325q17 -84 25 -207q27 42 57 80q71 91 135.5 119t182.5 28q129 0 189 -18t124 -82q65 -66 81.5 -120.5t16.5 -149.5v-879h-354v739q0 111 -38 146t-154 35q-136 0 -186 -52.5t-50 -177.5v-690h-354z" />
<glyph unicode="o" horiz-adv-x="1351" d="M80 621q0 107 4.5 168.5t21 121.5t47.5 104.5t85 94.5q98 91 182 115t256 24t255 -23.5t183 -115.5q43 -40 71 -77.5t45.5 -75t26 -90.5t11 -105.5t2.5 -138.5q0 -201 -31 -299.5t-135 -202.5q-87 -87 -174 -114t-254 -27q-169 0 -255.5 26t-176.5 115 q-104 102 -134 199.5t-30 300.5zM436 612q0 -76 3 -125t13 -90.5t25.5 -64t43.5 -38.5t64.5 -21t90.5 -5q53 0 88 5t63 20.5t43.5 38t26 63.5t13.5 91t3 126q0 73 -3 120.5t-12 90t-25 66.5t-43 41.5t-64 24t-90 6.5q-77 0 -124 -17t-73 -61.5t-34.5 -105.5t-8.5 -165z" />
<glyph unicode="p" horiz-adv-x="1394" d="M117 -354v1583h352q4 -48 8 -152q60 98 140.5 135t207.5 37q111 0 188 -23t156 -102q97 -95 121.5 -180.5t24.5 -308.5q0 -127 -9 -210.5t-31.5 -143.5t-51 -97t-78.5 -82q-48 -44 -88 -69t-88 -36.5t-85.5 -14t-111.5 -2.5q-110 0 -182.5 37.5t-118.5 117.5v-248 q0 -97 -12 -241h-342zM471 541q0 -147 60 -202.5t182 -55.5q73 0 113.5 11.5t68.5 50t37.5 105.5t9.5 183q0 104 -8 161.5t-34.5 93t-66 46t-110.5 10.5q-134 0 -193 -58.5t-59 -189.5v-155z" />
<glyph unicode="q" horiz-adv-x="1394" d="M80 629q0 217 25 303t122 184q82 83 161.5 108t193.5 25q121 0 197.5 -36t135.5 -132q1 27 11 148h354v-1583h-344q-10 120 -10 241v252q-46 -83 -118 -121t-183 -38q-74 0 -111 2.5t-84.5 14t-87.5 36.5t-88 69q-50 45 -79 82t-52.5 96t-33 142t-9.5 207zM453 629 q0 -113 10 -179t38.5 -104.5t69 -50.5t111.5 -12q122 0 183 55.5t61 202.5v164q0 125 -57.5 182t-186.5 57q-97 0 -143.5 -24.5t-66 -89.5t-19.5 -201z" />
<glyph unicode="r" horiz-adv-x="946" d="M117 0v1229h325q20 -108 27 -244q38 53 92 113q86 93 157.5 122t199.5 29v-385q-95 0 -161.5 -6.5t-118 -23t-82.5 -40.5t-51 -64.5t-27 -90.5t-7 -121v-518h-354z" />
<glyph unicode="s" horiz-adv-x="1132" d="M84 31l47 262q163 -19 313 -19q111 0 166 7t73.5 21t18.5 42q0 26 -11 40t-52 28l-248 86q-87 29 -131 62.5t-90 96.5q-41 56 -54.5 96t-13.5 101q0 101 25.5 158.5t103.5 128.5q115 108 375 108q101 0 218 -13t196 -40l-47 -258q-163 16 -346 16q-107 0 -145 -14.5 t-38 -62.5q0 -32 14 -48t62 -30l262 -82q73 -23 111.5 -49t79.5 -72q46 -51 63 -91t17 -104q0 -126 -24 -185t-107 -128q-74 -62 -179.5 -85t-253.5 -23q-244 0 -405 51z" />
<glyph unicode="t" horiz-adv-x="823" d="M45 971v248l127 8v241h354v-239h242v-258h-242v-602q0 -88 97 -88h149v-244q-174 -37 -311 -37q-108 0 -199 88q-49 47 -69.5 105t-20.5 159v619h-127z" />
<glyph unicode="u" horiz-adv-x="1325" d="M106 348v881h357v-791q0 -109 27 -140.5t114 -31.5q122 0 185 62.5t63 199.5v701h354v-1229h-317q-20 61 -31 170q-29 -45 -74 -94q-47 -49 -102 -72.5t-164 -23.5q-112 0 -172 19.5t-137 94.5q-60 60 -81.5 120.5t-21.5 133.5z" />
<glyph unicode="v" horiz-adv-x="1204" d="M4 1229h361l217 -932h41l215 932h362l-248 -996q-11 -40 -32.5 -72t-39.5 -47.5t-51 -39.5q-32 -22 -54.5 -34.5t-74 -26t-112.5 -13.5h-277z" />
<glyph unicode="w" horiz-adv-x="1992" d="M14 1229h359l153 -932h41l176 911h523l186 -911h41l141 932h344l-174 -1000q-3 -19 -11 -36.5t-15 -29t-21.5 -27t-21.5 -22t-25.5 -22.5t-23.5 -20q-39 -34 -88 -53t-136 -19h-291l-165 852h-43l-117 -623q-5 -25 -12.5 -44.5t-23.5 -37.5t-23.5 -25.5t-31.5 -26.5 t-28 -23q-27 -22 -49.5 -35t-68.5 -25t-105 -12h-256z" />
<glyph unicode="x" horiz-adv-x="1220" d="M-2 0l233 467q27 55 55 86t79 70l28 20l-6 4q-102 70 -133 129l-231 453h391l196 -424h33l172 424h389l-231 -453q-44 -83 -137 -129l-9 -4l27 -18q48 -37 74.5 -68.5t56.5 -89.5l240 -467h-398l-202 442h-35l-203 -442h-389z" />
<glyph unicode="y" horiz-adv-x="1193" d="M4 1229h365l215 -932h45l198 932h363l-301 -1241q-19 -81 -55.5 -140t-102.5 -114q-79 -65 -149.5 -89t-165.5 -24q-106 0 -277 37v246q170 -10 256 -10q90 0 125 26.5t49 91.5l4 23h-266z" />
<glyph unicode="z" horiz-adv-x="1044" d="M74 0v150q0 89 10 127t57 104l256 356q62 88 160 191v18h-457v283h858v-182q0 -71 -10 -106.5t-59 -100.5l-252 -348q-80 -111 -160 -191v-18h510v-283h-913z" />
<glyph unicode="{" horiz-adv-x="626" d="M37 573v256q15 1 30.5 6t34.5 16.5t31 35.5t12 57v203q0 52 6 96t23 84t31.5 68.5t47 68t54.5 63t68 70.5l200 -135q-37 -68 -51 -99.5t-24.5 -89.5t-10.5 -145v-188q0 -89 -39 -144t-112 -96q73 -39 112 -94.5t39 -144.5v-187q0 -87 10.5 -145t24 -87.5t51.5 -100.5 l-200 -136q-103 102 -139 149q-88 117 -91 273v13v219q0 35 -12 59.5t-31.5 35t-34 14.5t-30.5 5z" />
<glyph unicode="|" horiz-adv-x="530" d="M117 -350v1886h297v-1886h-297z" />
<glyph unicode="}" horiz-adv-x="626" d="M51 -59q38 71 51.5 100.5t24 87.5t10.5 145v187q0 89 39.5 144.5t112.5 94.5q-74 41 -113 96t-39 144v188q0 87 -10.5 145t-24 88.5t-51.5 100.5l199 135q54 -55 81 -84t61.5 -75t50 -84t27 -91t11.5 -116v-203q0 -35 12 -59.5t31.5 -35.5t34.5 -15t31 -5v-256 q-16 -1 -31 -5t-34.5 -14.5t-31.5 -35t-12 -59.5v-219q0 -52 -7 -96.5t-25.5 -85.5t-33.5 -68t-49 -65.5t-52.5 -57.5t-63.5 -62z" />
<glyph unicode="~" d="M162 725q130 111 258 111q68 0 228 -55.5t202 -55.5q89 0 194 55l76 -252q-128 -110 -258 -110q-68 0 -228 55t-202 55q-89 0 -194 -55z" />
<glyph unicode="&#xa2;" d="M143 743q0 196 26.5 275t129.5 172q79 71 140.5 100t148.5 37v219h250v-219q86 -8 131 -16q68 -11 149 -41l-63 -248q-209 18 -340 18q-56 0 -94 -11.5t-62 -32t-37 -59.5t-17.5 -84.5t-4.5 -115.5q0 -167 45.5 -225.5t181.5 -58.5q128 0 346 24l72 -250 q-103 -35 -166 -45q-54 -9 -141 -16v-268h-250v270q-89 9 -151.5 39.5t-129.5 97.5q-103 101 -133.5 185t-30.5 253z" />
<glyph unicode="&#xa3;" d="M115 0v266q87 41 119 109t32 170v63h-151v242h151v221q0 97 28.5 156.5t84.5 115.5q66 66 147 93.5t187 27.5q225 0 405 -59l-61 -258q-138 24 -269 24q-102 0 -137 -41.5t-35 -166.5v-113h283v-225q-131 -15 -283 -17q0 -85 -14 -142t-59 -112q-20 -27 -62 -69h699v-269 q-164 -16 -357 -16h-708z" />
<glyph unicode="&#xa5;" d="M4 1444h416l184 -713h101l169 713h410l-258 -717h143v-190q-166 -17 -335 -17v-92h303v-190q-138 -15 -303 -17v-221h-357v221h-309v207h309v92h-344v207h143z" />
<glyph unicode="&#xa8;" horiz-adv-x="983" d="M66 1331v279h376v-279h-376zM541 1331v279h377v-279h-377z" />
<glyph unicode="&#xa9;" horiz-adv-x="1656" d="M72 614q0 118 3.5 190.5t15 146.5t35 124.5t62 99.5t97.5 95q114 90 222.5 115.5t321.5 25.5q210 0 317 -25t222 -112q51 -39 86.5 -77t60 -86t38.5 -93t21 -115t9 -132.5t2 -164.5q0 -239 -40 -357.5t-154 -228.5q-60 -57 -117.5 -91t-131 -50t-137.5 -20t-178 -4 q-112 0 -176.5 4t-136 20t-128 49t-116.5 88q-119 108 -158.5 229t-39.5 369zM295 666q0 -130 8 -218t31.5 -159.5t59.5 -113.5t98 -70t141 -38t194 -10q113 0 191.5 10t141 37t99 68.5t61 111.5t33.5 158.5t9 216.5q0 112 -9.5 192t-34.5 143.5t-63 102.5t-99.5 65t-140 36 t-188.5 10q-107 0 -184 -9.5t-138.5 -34.5t-100 -64t-64 -101t-35.5 -142t-10 -191zM473 631q0 132 19 196.5t83 126.5q61 61 120.5 78t178.5 17q104 0 236 -54l-49 -235q-106 18 -172 18q-83 0 -105 -24.5t-22 -116.5q0 -93 22 -122.5t95 -29.5q74 0 182 19l45 -238 q-123 -51 -246 -51q-107 0 -169.5 17.5t-117.5 72.5q-63 63 -81.5 127t-18.5 199z" />
<glyph unicode="&#xab;" horiz-adv-x="1312" d="M57 500v243l449 414l158 -147q-63 -110 -179 -260l-90 -113v-29l90 -112q102 -126 179 -260l-158 -150zM610 500v243l449 414l158 -147q-63 -110 -179 -260l-90 -113v-29l90 -112q116 -150 179 -260l-158 -150z" />
<glyph unicode="&#xad;" horiz-adv-x="907" d="M76 465v299h755v-299h-755z" />
<glyph unicode="&#xae;" horiz-adv-x="1656" d="M72 614q0 118 3.5 190.5t15 146.5t35 124.5t62 99.5t97.5 95q114 90 222.5 115.5t321.5 25.5q210 0 317 -25t222 -112q51 -39 86.5 -77t60 -86t38.5 -93t21 -115t9 -132.5t2 -164.5q0 -239 -40 -357.5t-154 -228.5q-60 -57 -117.5 -91t-131 -50t-137.5 -20t-178 -4 q-112 0 -176.5 4t-136 20t-128 49t-116.5 88q-119 108 -158.5 229t-39.5 369zM295 666q0 -130 8 -218t31.5 -159.5t59.5 -113.5t98 -70t141 -38t194 -10q113 0 191.5 10t141 37t99 68.5t61 111.5t33.5 158.5t9 216.5q0 112 -9.5 192t-34.5 143.5t-63 102.5t-99.5 65t-140 36 t-188.5 10q-107 0 -184 -9.5t-138.5 -34.5t-100 -64t-64 -101t-35.5 -142t-10 -191zM524 233v801h357q102 0 142.5 -10.5t82.5 -54.5q33 -34 42 -72t9 -131q0 -87 -15.5 -129.5t-62.5 -83.5l-35 -31l154 -289h-256l-100 242h-88v-242h-230zM754 649h108q49 0 62.5 17 t13.5 73q0 53 -13.5 68.5t-60.5 15.5h-110v-174z" />
<glyph unicode="&#xb4;" horiz-adv-x="671" d="M66 1331l147 293h393l-223 -293h-317z" />
<glyph unicode="&#xb8;" horiz-adv-x="559" d="M66 -354l6 127q34 -6 71 -6q35 0 48.5 7.5t13.5 26.5q0 13 -14 23t-33.5 19t-39.5 22t-34 37t-14 57q0 64 16 96h238v-106q91 -35 130.5 -71t39.5 -101q0 -25 -6.5 -42.5t-14.5 -26t-27 -25.5q-33 -29 -77 -40.5t-125 -11.5q-120 0 -178 15z" />
<glyph unicode="&#xbb;" horiz-adv-x="1312" d="M96 233q69 119 178 261l91 112v29l-91 113q-98 121 -178 260l158 149l448 -414v-243l-448 -414zM651 233q76 138 176 261l91 112v29l-91 113q-101 125 -176 260l156 149l448 -414v-243l-448 -414z" />
<glyph unicode="&#xd3;" horiz-adv-x="1492" d="M84 717q0 103 2 160t10 123.5t24 109t44.5 88t71.5 88.5q108 107 211.5 141.5t297.5 34.5q86 0 138.5 -2.5t108.5 -11t96 -26t81.5 -46.5t85.5 -73q54 -54 85 -106.5t46 -127t19 -143.5t4 -195q0 -84 -1.5 -136.5t-6.5 -114t-15 -102.5t-27 -85.5t-42.5 -81t-61.5 -72.5 q-54 -54 -103 -86t-112.5 -48t-125.5 -20.5t-169 -4.5q-106 0 -168 4.5t-125.5 20.5t-112.5 48t-103 86q-43 43 -71.5 89.5t-44.5 90.5t-24 112t-10 125.5t-2 160.5zM446 725q0 -59 0.5 -93.5t2.5 -78.5t6.5 -68.5t12 -55t18.5 -46.5t28 -34.5t38 -27t50 -17t64 -11t79 -2.5 t79.5 3t64.5 12t50.5 18.5t38.5 28.5t28 35.5t19 47t12 55.5t6.5 68t3 76.5t0.5 89.5q0 59 -0.5 94t-3 78.5t-6.5 67.5t-12 54.5t-19 45.5t-28 33t-38.5 26t-50.5 16t-64 10.5t-80 2.5q-63 0 -108.5 -8t-78 -19.5t-53.5 -40.5t-33 -55t-17.5 -80.5t-7 -98.5t-1.5 -126z M522 1563l148 292h393l-223 -292h-318z" />
<glyph unicode="&#xf3;" horiz-adv-x="1351" d="M80 621q0 107 4.5 168.5t21 121.5t47.5 104.5t85 94.5q98 91 182 115t256 24t255 -23.5t183 -115.5q43 -40 71 -77.5t45.5 -75t26 -90.5t11 -105.5t2.5 -138.5q0 -201 -31 -299.5t-135 -202.5q-87 -87 -174 -114t-254 -27q-169 0 -255.5 26t-176.5 115 q-104 102 -134 199.5t-30 300.5zM436 612q0 -76 3 -125t13 -90.5t25.5 -64t43.5 -38.5t64.5 -21t90.5 -5q53 0 88 5t63 20.5t43.5 38t26 63.5t13.5 91t3 126q0 73 -3 120.5t-12 90t-25 66.5t-43 41.5t-64 24t-90 6.5q-77 0 -124 -17t-73 -61.5t-34.5 -105.5t-8.5 -165z M463 1331l147 293h394l-224 -293h-317z" />
<glyph unicode="&#x104;" horiz-adv-x="1427" d="M-6 0l434 1444h285q74 0 119.5 -15.5t103.5 -62.5q51 -42 69.5 -61.5t33.5 -49t34 -92.5l361 -1163q-103 -20 -135.5 -39t-32.5 -57q0 -37 29 -52.5t106 -15.5v-203q-197 0 -252 10t-98 52q-50 49 -62 75t-12 80q0 98 78 160l-80 281h-545l-82 -291h-354zM512 588h383 l-166 579h-49z" />
<glyph unicode="&#x105;" horiz-adv-x="1257" d="M57 354q0 103 20.5 163.5t76.5 115.5q75 75 139.5 95t226.5 20h277v79q0 72 -42 96.5t-159 24.5q-162 0 -418 -51l-63 252q105 45 245 72q143 28 254 28q119 0 208.5 -28t166.5 -105q68 -68 96 -108t43 -104t15 -175v-729h-49q-86 0 -86 -90q0 -42 28.5 -58t104.5 -16 v-203q-139 0 -199.5 4.5t-89.5 16t-59 41.5q-51 51 -63.5 77t-12.5 78q0 63 30 110t99 89l-25 139q-23 -39 -92 -104q-65 -65 -133.5 -84.5t-187.5 -19.5q-104 0 -158 15t-103 64t-69.5 107.5t-20.5 187.5zM385 397q0 -79 29.5 -105t120.5 -26q122 0 189 70t71 205 q-83 -9 -230 -9q-107 0 -143.5 -27t-36.5 -108z" />
<glyph unicode="&#x106;" horiz-adv-x="1290" d="M84 727q0 228 34.5 348t139.5 225q55 55 114 89t131 49.5t137 20.5t165 5q96 0 216.5 -22t223.5 -56l-61 -280q-213 31 -355 31q-118 0 -187.5 -15t-116 -60t-63 -119.5t-16.5 -199.5q0 -92 6.5 -156t23 -115t42 -81t68.5 -49.5t96.5 -27t130.5 -7.5q156 0 389 33 l53 -289q-92 -31 -232 -51t-275 -20q-72 0 -123 4t-119 19t-130 49.5t-118 88.5q-106 104 -140 226t-34 360zM520 1563l148 292h393l-223 -292h-318z" />
<glyph unicode="&#x107;" horiz-adv-x="1130" d="M80 621q0 205 28.5 300.5t129.5 186.5q98 91 176 116t233 25q135 0 258 -22q63 -10 152 -39l-47 -248q-209 18 -359 18q-70 0 -112 -16t-65 -59.5t-30.5 -103.5t-7.5 -165q0 -76 3.5 -127.5t14.5 -92t26.5 -63.5t42.5 -38t60.5 -20t82.5 -5q132 0 362 25l53 -250 q-96 -34 -166 -45q-117 -18 -264 -18q-156 0 -238 27t-169 114q-102 100 -133 199.5t-31 300.5zM412 1331l147 293h393l-223 -293h-317z" />
<glyph unicode="&#x118;" horiz-adv-x="1243" d="M119 313v1131h1044v-295h-688v-266h590v-271q-164 -16 -356 -16h-234v-195q0 -70 22.5 -93t84.5 -23h581v-269q-66 -18 -95.5 -34.5t-34.5 -29.5t-5 -42q0 -41 29.5 -57.5t105.5 -16.5v-203q-138 0 -198.5 4.5t-90 16t-59.5 41.5q-51 51 -63.5 77t-12.5 78q0 90 68 150 h-391q-80 0 -115 16.5t-92 73.5q-52 52 -71 93.5t-19 129.5z" />
<glyph unicode="&#x119;" horiz-adv-x="1214" d="M80 621q0 205 28.5 300.5t129.5 186.5q99 91 178 116t239 25q141 0 231.5 -28t155.5 -105q71 -83 87 -130.5t16 -145.5q0 -70 -17 -122.5t-61 -99.5q-58 -62 -106 -84t-123 -22h-199q-91 0 -201 10q2 -83 12.5 -129.5t40.5 -76t76.5 -39t128.5 -9.5q46 0 103.5 3.5 t93.5 7t99 10t79 8.5l51 -254l-34 -17t-29.5 -15l-22.5 -12t-19 -11.5t-13 -11t-10.5 -13t-5.5 -14t-4.5 -18t-0.5 -21.5q0 -42 29 -58t106 -16v-203q-139 0 -200 4.5t-90.5 16t-59.5 41.5q-50 52 -62 77.5t-12 77.5q0 79 51 136q-30 -6 -79 -6q-160 0 -248 27.5t-174 113.5 q-104 102 -134 195t-30 305zM436 717h228q67 0 98.5 10.5t41 32t9.5 67.5q0 75 -35.5 104.5t-130.5 29.5q-120 0 -162.5 -49.5t-48.5 -194.5z" />
<glyph unicode="&#x141;" horiz-adv-x="1169" d="M10 463v299l109 49v633h356v-467l213 100v-301l-213 -98v-277q0 -70 22.5 -93t84.5 -23h538v-269q-164 -16 -356 -16h-348q-80 0 -115 16.5t-92 73.5q-52 52 -71 93.5t-19 129.5v199z" />
<glyph unicode="&#x142;" horiz-adv-x="712" d="M10 463v297l96 37v762h336q6 -49 13.5 -223.5t7.5 -311.5v-88l192 76v-299l-192 -76v-268q0 -34 24 -61t56 -27h145v-250q-140 -31 -289 -31q-63 0 -109.5 20.5t-94.5 67.5q-53 51 -71 103t-18 157v152z" />
<glyph unicode="&#x143;" horiz-adv-x="1542" d="M119 0v1444h250q57 0 95 -17t89 -55q67 -51 89 -76.5t56 -91.5l363 -694h20v934h340v-1444h-252q-18 0 -32.5 1t-29 6t-22 7t-23 12t-19.5 12.5t-23 16.5t-23 17q-52 39 -76 65.5t-55 83.5l-385 713h-20v-934h-342zM518 1563l148 292h393l-223 -292h-318z" />
<glyph unicode="&#x144;" horiz-adv-x="1368" d="M117 0v1229h325q17 -84 25 -207q27 42 57 80q71 91 135.5 119t182.5 28q129 0 189 -18t124 -82q65 -66 81.5 -120.5t16.5 -149.5v-879h-354v739q0 111 -38 146t-154 35q-136 0 -186 -52.5t-50 -177.5v-690h-354zM451 1331l147 293h393l-223 -293h-317z" />
<glyph unicode="&#x15a;" horiz-adv-x="1230" d="M72 47l59 291q65 -11 211.5 -21t235.5 -10q131 0 183 23.5t52 79.5q0 41 -23.5 69.5t-89.5 50.5l-315 103q-90 28 -133.5 61t-93.5 103q-68 93 -68 247q0 102 26 155.5t103 129.5q79 76 172.5 105.5t206.5 29.5q122 0 270 -19t242 -50l-61 -289q-70 12 -203 21.5 t-240 9.5q-48 0 -81 -6t-58 -27.5t-25 -59.5q0 -39 25 -65t98 -51l301 -97q94 -29 145 -69t91 -105q39 -63 51 -117t12 -130q0 -109 -31 -179t-124 -141q-87 -68 -185.5 -89t-238.5 -21q-121 0 -271 18t-243 49zM408 1563l147 292h393l-223 -292h-317z" />
<glyph unicode="&#x15b;" horiz-adv-x="1132" d="M84 31l47 262q163 -19 313 -19q111 0 166 7t73.5 21t18.5 42q0 26 -11 40t-52 28l-248 86q-87 29 -131 62.5t-90 96.5q-41 56 -54.5 96t-13.5 101q0 101 25.5 158.5t103.5 128.5q115 108 375 108q101 0 218 -13t196 -40l-47 -258q-163 16 -346 16q-107 0 -145 -14.5 t-38 -62.5q0 -32 14 -48t62 -30l262 -82q73 -23 111.5 -49t79.5 -72q46 -51 63 -91t17 -104q0 -126 -24 -185t-107 -128q-74 -62 -179.5 -85t-253.5 -23q-244 0 -405 51zM354 1331l148 293h393l-223 -293h-318z" />
<glyph unicode="&#x179;" horiz-adv-x="1204" d="M59 0v219q0 85 58 158l606 749v23h-631v295h1049v-213q0 -90 -45 -146l-613 -768v-22h678v-279q-164 -16 -356 -16h-746zM375 1563l147 292h393l-223 -292h-317z" />
<glyph unicode="&#x17a;" horiz-adv-x="1044" d="M74 0v150q0 89 10 127t57 104l256 356q62 88 160 191v18h-457v283h858v-182q0 -71 -10 -106.5t-59 -100.5l-252 -348q-80 -111 -160 -191v-18h510v-283h-913zM311 1331l148 293h393l-223 -293h-318z" />
<glyph unicode="&#x17b;" horiz-adv-x="1204" d="M59 0v219q0 85 58 158l606 749v23h-631v295h1049v-213q0 -90 -45 -146l-613 -768v-22h678v-279q-164 -16 -356 -16h-746zM412 1563v221h379v-221h-379z" />
<glyph unicode="&#x17c;" horiz-adv-x="1044" d="M74 0v150q0 89 10 127t57 104l256 356q62 88 160 191v18h-457v283h858v-182q0 -71 -10 -106.5t-59 -100.5l-252 -348q-80 -111 -160 -191v-18h510v-283h-913zM332 1331v221h379v-221h-379z" />
<glyph unicode="&#x2c6;" horiz-adv-x="1005" d="M66 1331l215 293h442l217 -293h-336l-102 162l-103 -162h-333z" />
<glyph unicode="&#x2da;" horiz-adv-x="755" d="M66 1606q0 76 11.5 113t49.5 75q34 34 55 47.5t66 22t129 8.5q85 0 130.5 -8.5t66 -21.5t55.5 -48q38 -38 49.5 -75t11.5 -113q0 -73 -13 -112.5t-48 -74.5q-36 -36 -57 -49.5t-65 -21t-130 -7.5q-85 0 -128.5 7.5t-64.5 21t-57 49.5q-35 35 -48 74.5t-13 112.5z M270 1606q0 -43 21.5 -58.5t85.5 -15.5q65 0 86.5 15.5t21.5 58.5t-22 59t-86 16q-62 0 -84.5 -16t-22.5 -59z" />
<glyph unicode="&#x2dc;" horiz-adv-x="1024" d="M66 1505q132 113 274 113q66 0 197 -36t172 -36q89 0 192 58l57 -164q-133 -111 -274 -111q-66 0 -198 36t-173 36q-83 0 -192 -60z" />
<glyph unicode="&#x2000;" horiz-adv-x="936" />
<glyph unicode="&#x2001;" horiz-adv-x="1872" />
<glyph unicode="&#x2002;" horiz-adv-x="936" />
<glyph unicode="&#x2003;" horiz-adv-x="1872" />
<glyph unicode="&#x2004;" horiz-adv-x="624" />
<glyph unicode="&#x2005;" horiz-adv-x="468" />
<glyph unicode="&#x2006;" horiz-adv-x="312" />
<glyph unicode="&#x2007;" horiz-adv-x="312" />
<glyph unicode="&#x2008;" horiz-adv-x="234" />
<glyph unicode="&#x2009;" horiz-adv-x="374" />
<glyph unicode="&#x200a;" horiz-adv-x="104" />
<glyph unicode="&#x2010;" horiz-adv-x="907" d="M76 465v299h755v-299h-755z" />
<glyph unicode="&#x2011;" horiz-adv-x="907" d="M76 465v299h755v-299h-755z" />
<glyph unicode="&#x2012;" horiz-adv-x="907" d="M76 465v299h755v-299h-755z" />
<glyph unicode="&#x2013;" horiz-adv-x="1067" d="M76 465v299h917v-299h-917z" />
<glyph unicode="&#x2014;" horiz-adv-x="1820" d="M76 465v299h1671v-299h-1671z" />
<glyph unicode="&#x2018;" horiz-adv-x="493" d="M55 815v330q0 96 36.5 211.5t84.5 179.5h258q-26 -75 -47.5 -172.5t-21.5 -177.5q44 -5 59.5 -21t15.5 -65v-285h-385z" />
<glyph unicode="&#x2019;" horiz-adv-x="493" d="M53 1251v285h385v-330q0 -96 -36.5 -211.5t-84.5 -179.5h-258q70 198 70 350q-44 5 -60 21t-16 65z" />
<glyph unicode="&#x201a;" horiz-adv-x="493" d="M55 86v285h385v-330q0 -96 -37 -211t-86 -180h-258q70 198 70 350q-42 5 -58 21t-16 65z" />
<glyph unicode="&#x201c;" horiz-adv-x="960" d="M55 815v330q0 96 36.5 211.5t84.5 179.5h258q-26 -75 -47.5 -172.5t-21.5 -177.5q44 -5 59.5 -21t15.5 -65v-285h-385zM522 815v330q0 96 36.5 211.5t84.5 179.5h258q-70 -198 -70 -350q44 -5 60 -21t16 -65v-285h-385z" />
<glyph unicode="&#x201d;" horiz-adv-x="960" d="M55 1251v285h385v-330q0 -96 -37 -211t-86 -180h-258q70 198 70 350q-42 5 -58 21t-16 65zM522 1251v285h385v-330q0 -96 -37 -211t-86 -180h-258q70 198 70 350q-42 5 -58 21t-16 65z" />
<glyph unicode="&#x201e;" horiz-adv-x="960" d="M55 86v285h385v-330q0 -96 -37 -211t-86 -180h-258q70 198 70 350q-42 5 -58 21t-16 65zM522 86v285h385v-330q0 -96 -37 -211t-86 -180h-258q70 198 70 350q-42 5 -58 21t-16 65z" />
<glyph unicode="&#x2026;" horiz-adv-x="1470" d="M57 0v371h379v-371h-379zM547 0v371h379v-371h-379zM1034 0v371h379v-371h-379z" />
<glyph unicode="&#x202f;" horiz-adv-x="374" />
<glyph unicode="&#x2039;" horiz-adv-x="759" d="M57 500v243l449 414l158 -147q-27 -41 -57 -80.5t-74.5 -96t-65.5 -83.5l-88 -113v-29l88 -112q21 -27 65.5 -83.5t74.5 -96t57 -80.5l-158 -150z" />
<glyph unicode="&#x203a;" horiz-adv-x="759" d="M96 233q28 42 56.5 80.5t75.5 97.5t65 83l88 112v29l-88 113q-21 27 -65.5 83.5t-74.5 96t-57 80.5l158 149l448 -414v-243l-448 -414z" />
<glyph unicode="&#x205f;" horiz-adv-x="468" />
<glyph unicode="&#x20ac;" d="M76 471v188h119v129h-119v191h131q15 103 50 177.5t101 141.5q103 106 185 136t258 30q148 0 401 -78l-59 -280q-195 31 -318 31q-138 0 -199.5 -32t-84.5 -126h475v-174q-174 -17 -357 -17h-137v-129h494v-172q-164 -16 -357 -16h-114q24 -96 85.5 -130t188.5 -34 q149 0 340 33l53 -287q-205 -73 -419 -73q-162 0 -245.5 30.5t-180.5 128.5q-69 70 -106 148t-52 184h-133z" />
<glyph unicode="&#x2122;" horiz-adv-x="1454" d="M45 1270v174h545v-174h-178q8 -72 8 -168v-311h-205v311q0 96 8 168h-178zM662 791v653h182q45 0 73.5 -15.5t45.5 -66.5l67 -201h12l66 201q17 52 44.5 67t72.5 15h184v-653h-188v385h-11l-100 -289h-152l-98 289h-12v-385h-186z" />
<glyph unicode="&#xe000;" horiz-adv-x="1228" d="M0 0v1229h1229v-1229h-1229z" />
</font>
</defs>
</svg>
